<?xml version="1.0" standalone="no"?><!DOCTYPE svg PUBLIC "-//W3C//DTD SVG 1.1//EN" "http://www.w3.org/Graphics/SVG/1.1/DTD/svg11.dtd"><svg t="1736241857834" class="icon" viewBox="0 0 1024 1024" version="1.1" xmlns="http://www.w3.org/2000/svg" p-id="5670" xmlns:xlink="http://www.w3.org/1999/xlink" width="200" height="200"><path d="M282.29632 754.60608v83.1488a8.02816 8.02816 0 0 1-8.11008 7.9872H189.6448a7.90528 7.90528 0 0 1-7.9872-7.70048l3.44064-364.05248c105.22624 16.05632 211.47648 24.65792 317.89056 25.64096h77.33248v-60.78464h-76.71808a2254.72512 2254.72512 0 0 1-300.6464-23.63392l63.20128-109.7728 51.48672-119.76704a2231.21408 2231.21408 0 0 1 303.22688-18.432V106.41408c-202.67008 0-324.32128 20.8896-329.76896 21.79072l-16.30208 2.8672-62.2592 145.69472-7.5776 13.18912H111.12448v60.8256h58.7776l-45.09696 78.31552-3.97312 408.61696a68.89472 68.89472 0 0 0 68.8128 68.8128h84.54144a68.89472 68.89472 0 0 0 68.89472-68.8128v-22.40512h298.88512v-60.78464l-359.66976 0.08192zM774.59456 318.6688a108.83072 108.83072 0 1 0 0-217.62048 108.83072 108.83072 0 0 0 0 217.66144z m0-155.15648a46.44864 46.44864 0 1 1 0 92.89728 46.44864 46.44864 0 0 1 0-92.89728z" fill="#e6e6e6" opacity=".65" p-id="5671"></path><path d="M774.79936 339.1488c-91.5456 0-166.2976 67.05152-166.2976 149.38112l-0.49152 171.70432h60.29312l37.80608 259.85024h137.216l35.30752-259.85024h61.56288l0.8192-171.2128c0-82.82112-74.5472-149.83168-166.21568-149.83168z m103.34208 258.70336h-53.94432l-35.34848 259.85024h-28.79488l-37.72416-259.85024h-51.97824V489.0624c0-48.128 46.57152-87.2448 103.95648-87.2448 57.344 0 103.91552 39.1168 103.91552 86.99904l-0.08192 109.03552z" fill="#e6e6e6" opacity=".65" p-id="5672"></path></svg>