<?xml version="1.0" standalone="no"?><!DOCTYPE svg PUBLIC "-//W3C//DTD SVG 1.1//EN" "http://www.w3.org/Graphics/SVG/1.1/DTD/svg11.dtd"><svg t="1751265256777" class="icon" viewBox="0 0 1024 1024" version="1.1" xmlns="http://www.w3.org/2000/svg" p-id="5189" xmlns:xlink="http://www.w3.org/1999/xlink" width="200" height="200"><path d="M756.3 894.4H267.7C120.1 894.4 0 774.3 0 626.7c0-17.6 1.7-35 5-51.5C27.9 457 128.2 368.9 247.2 359.8 265.6 229.3 378.5 129.6 512 129.6s246.4 99.7 264.8 230.2c119.1 9.3 219.3 97.3 242.3 215.5l0.4 2.2c3 16 4.6 32.5 4.6 49.2-0.1 147.6-120.2 267.7-267.8 267.7z m-490.4-494c-107.3 0.9-200 77.7-220.3 182.7-2.8 14-4.2 28.6-4.2 43.5C41.4 751.5 142.9 853 267.7 853h488.6c124.8 0 226.3-101.5 226.3-226.3 0-14.7-1.4-29.2-4.2-43.2l-0.4-2.3c-21.1-104-113.3-180-220-180.8l-19.1-0.2-1.5-19.1C729.1 263.3 630.1 171 512 171c-118.1 0-217.1 92.3-225.4 210.1l-1.4 19.3h-19.3z" fill="#e6e6e6" p-id="5190"></path><path d="M710.4 716.8H313.6c-11.4 0-20.7-9.3-20.7-20.7v-145c0-4 1.2-7.9 3.3-11.3l80.5-124.3c3.8-5.9 10.4-9.5 17.4-9.5h235.5c7 0 13.6 3.6 17.4 9.5l79.3 122.3c3 3.6 4.7 8.2 4.7 13.2v145c0.1 11.5-9.2 20.8-20.6 20.8z m-376.1-41.5h355.3V557.5l-71.2-109.9h-213l-71.1 109.7v118z" fill="#e6e6e6" p-id="5191"></path><path d="M313.6 540h396.7v41.4H313.6z" fill="#e6e6e6" p-id="5192"></path><path d="M400.2 625.6m-25.2 0a25.2 25.2 0 1 0 50.4 0 25.2 25.2 0 1 0-50.4 0Z" fill="#e6e6e6" p-id="5193"></path><path d="M623.8 625.6m-25.2 0a25.2 25.2 0 1 0 50.4 0 25.2 25.2 0 1 0-50.4 0Z" fill="#e6e6e6" p-id="5194"></path><path d="M359.3 709.9h41.4v58h-41.4zM623.3 709.9h41.4v58h-41.4z" fill="#e6e6e6" p-id="5195"></path></svg>