<?xml version="1.0" standalone="no"?><!DOCTYPE svg PUBLIC "-//W3C//DTD SVG 1.1//EN" "http://www.w3.org/Graphics/SVG/1.1/DTD/svg11.dtd"><svg t="1733664004652" class="icon" viewBox="0 0 1024 1024" version="1.1" xmlns="http://www.w3.org/2000/svg" p-id="16217" xmlns:xlink="http://www.w3.org/1999/xlink" width="200" height="200"><path d="M824.07619 765.561905v-248.685715c0-9.752381 0-19.504762-4.87619-29.257142l-14.628571-24.380953h48.761904v-97.523809h-117.028571l-68.266667-97.52381H351.085714l-68.266666 97.52381H175.542857v97.523809h43.885714l-14.628571 24.380953c-4.87619 14.628571-9.752381 24.380952-9.752381 29.257142v248.685715h258.438095v-92.647619h112.152381v92.647619h258.438095z m-472.990476-185.295238v92.647619H292.571429V536.380952l112.152381-165.790476h214.55238L731.428571 536.380952v136.533334h-63.390476V585.142857l-316.952381-4.87619zM156.038095 156.038095H292.571429v-97.523809H58.514286V292.571429h97.523809zM156.038095 731.428571h-97.523809v234.057143H292.571429v-97.523809H156.038095zM867.961905 867.961905H731.428571v97.523809h234.057143V731.428571h-97.523809zM731.428571 58.514286v97.523809h136.533334V292.571429h97.523809V58.514286z" p-id="16218" fill="#e6e6e6"></path></svg>