<?xml version="1.0" standalone="no"?><!DOCTYPE svg PUBLIC "-//W3C//DTD SVG 1.1//EN" "http://www.w3.org/Graphics/SVG/1.1/DTD/svg11.dtd"><svg t="1733667231139" class="icon" viewBox="0 0 1024 1024" version="1.1" xmlns="http://www.w3.org/2000/svg" p-id="17289" xmlns:xlink="http://www.w3.org/1999/xlink" width="200" height="200"><path d="M726.698667 430.122667c0 24.746667-19.754667 45.44-44.458667 45.44-25.173333 0-44.970667-20.224-45.44-44.928 0-25.173333 20.224-45.44 44.928-45.44s44.970667 20.266667 44.970667 44.928zM274.432 430.122667c0-24.661333 20.266667-44.928 44.970667-44.928a45.226667 45.226667 0 0 1 44.928 45.44 45.525333 45.525333 0 0 1-45.44 44.928c-24.704 0-44.458667-20.736-44.458667-45.44z" p-id="17290" fill="#e6e6e6"></path><path d="M85.333333 0a85.333333 85.333333 0 0 0-85.333333 85.333333v827.093334a85.333333 85.333333 0 0 0 85.333333 85.333333h830.421334a85.333333 85.333333 0 0 0 85.333333-85.333333V85.333333a85.333333 85.333333 0 0 0-85.333333-85.333333H85.333333z m415.232 305.664h157.44l-24.192-119.978667a553.6 553.6 0 0 0-133.248-16.810666V124.16c48.469333 0 97.877333 6.186667 145.109334 18.517333 15.786667 3.968 28.16 16.298667 32.128 32.128l24.661333 96.298667h25.685333c16.298667 0 30.634667 11.861333 33.578667 28.16a34.090667 34.090667 0 0 1-21.717333 38.016c20.736 12.373333 33.109333 34.56 33.109333 58.794667v90.88c0 20.736-13.866667 38.997333-34.133333 43.946666v22.698667a23.424 23.424 0 0 1-23.68 23.722667h-65.706667a24.021333 24.021333 0 0 1-23.68-23.722667v-21.76h-125.354667v-226.133333z m0 0v226.218667H375.210667v21.76a24.021333 24.021333 0 0 1-23.722667 23.68h-65.706667a23.424 23.424 0 0 1-23.68-23.722667v-22.698667a44.970667 44.970667 0 0 1-34.090666-43.946666v-90.88c0-24.234667 12.373333-46.421333 33.109333-58.794667a34.048 34.048 0 0 1-21.76-38.016 34.346667 34.346667 0 0 1 33.621333-28.16H298.666667l24.661333-96.298667c3.968-15.786667 16.298667-28.16 32.128-32.128a575.36 575.36 0 0 1 145.066667-18.517333v44.714667c-44.373333 0-89.770667 5.930667-133.248 16.810666l-24.192 119.978667h157.44z m-154.368 403.968a32 32 0 0 1 32-32h362.922667a32 32 0 0 1 0 64H378.197333a32 32 0 0 1-32-32z m-86.186666-32h0.384a32 32 0 0 1 0 64h-0.384a32 32 0 0 1 0-64z m86.186666 177.578667a32 32 0 0 1 32-32h362.922667a32 32 0 0 1 0 64H378.197333a32 32 0 0 1-32-32z m-86.186666-32h0.384a32 32 0 0 1 0 64h-0.384a32 32 0 1 1 0-64z" p-id="17291" fill="#e6e6e6"></path></svg>