<?xml version="1.0" standalone="no"?><!DOCTYPE svg PUBLIC "-//W3C//DTD SVG 1.1//EN" "http://www.w3.org/Graphics/SVG/1.1/DTD/svg11.dtd"><svg t="1736241941453" class="icon" viewBox="0 0 1024 1024" version="1.1" xmlns="http://www.w3.org/2000/svg" p-id="6890" xmlns:xlink="http://www.w3.org/1999/xlink" width="200" height="200"><path d="M211.5584 9.1136c27.0848-20.992 72.4992-0.8704 74.24 34.048 1.7408 34.9184 1.7408 70.7072 0 105.6256-0.8704 25.344-25.344 46.2848-50.688 43.6736-22.6816-0.8704-43.6224-20.0704-44.544-43.6736a1196.032 1196.032 0 0 1-0.8192-96.9216c0.8704-15.7184 7.8336-33.1776 21.8112-42.752z m315.2384 3.4816c24.4224-22.7328 68.9664-9.6256 76.8 22.6816 4.4032 28.8256 1.792 57.6512 2.6624 87.3472 0 20.0704 0.8704 44.544-16.5888 58.5216-23.552 22.6816-69.0176 11.3152-77.7216-20.992-5.2224-26.1632-2.6112-54.1184-2.6112-81.2032 0.8704-22.6816-2.6112-50.688 17.408-66.3552zM38.656 83.3024c34.9184-25.2928 80.384-17.408 120.5248-19.2v64.6144c-26.2144 0.8704-53.248-2.56-79.4624 4.4032-18.3296 9.5744-15.7184 32.256-16.5888 49.7664 0.8704 221.7984 0 443.5968 0 665.3952-2.6624 20.0704 6.9632 46.2336 32.256 44.544 63.7952 2.56 128.4096 0 192.1536 0.8192v64.6144c-66.3552-0.8704-132.7616 1.792-199.1168-0.8704-44.544-1.7408-79.4624-37.5296-88.1664-79.4624V147.0464c5.2224-24.4224 16.5888-49.7664 38.4-63.744z m279.4496-18.3296H478.72v64.6144H318.1056V65.024z m319.5904 0c34.048 1.7408 68.9664-4.352 101.2736 7.8848 34.048 13.9776 58.5216 48.896 58.5216 85.5552 0.8704 75.1104 0 151.04 0.8704 226.1504H733.696c0-72.448 0.8704-144.896 0-218.2656 1.7408-15.7184-7.8848-34.0992-25.344-35.84-23.552-2.56-47.104-0.8704-69.8368-1.7408-0.8704-20.992-0.8704-42.752-0.8704-63.744z" fill="#9B9B9B" p-id="6891"></path><path d="M174.8992 324.352c16.5888-6.144 34.048-3.5328 51.5072-4.4032 128.3584 0.8704 255.8464-0.8704 384.2048 0.8704 35.84 0.8704 36.6592 61.1328 0.8704 62.0032-133.632 2.6112-268.0832 0-401.664 0.8704-13.9776-0.8704-32.3072 2.6112-41.9328-10.4448-14.848-13.9776-10.4448-40.192 7.0144-48.896z m335.3088 167.6288c113.5104-37.5296 237.5168-32.256 350.1568 3.4816 15.7184 5.2736 28.8256 15.7184 36.6592 30.5664 22.7328 44.544 31.4368 94.3104 55.04 137.984 13.9264 11.3664 33.1776 12.2368 48.896 20.0704 8.704 8.704 14.848 20.0704 20.0704 31.4368v20.992c-13.1072 3.4816-25.344 6.9632-38.4 10.4448 4.352 89.088 9.5744 178.9952-3.5328 268.0832-37.5296 3.4816-76.8 7.8848-114.3808 0-20.992-13.9776-12.2368-44.544-17.4592-65.536h-329.216c-4.352 22.7328-9.5744 44.544-14.848 66.4064-39.2704 3.4816-79.4624 7.8848-117.8624-1.7408-12.2368-27.9552-10.496-59.392-10.496-89.088l2.6112-177.2544a720.128 720.128 0 0 1-39.2704-14.848c3.4816-15.7184 6.9632-32.256 18.3296-44.544 16.5888-17.408 51.5072-9.5744 59.392-35.7888 27.9552-54.1184 26.1632-135.3216 94.3104-160.6656z m0.8704 55.04c-23.552 43.6224-34.9184 92.5184-53.248 138.8032 145.8176 30.5664 298.5984 31.4368 444.416 0-13.056-36.6592-23.552-74.24-35.7888-110.8992-6.144-20.9408-22.6816-38.4-45.4144-40.1408-63.744-6.144-128.3584-6.144-192.9728-7.8848-39.2704-0.8704-82.0736-0.8704-116.992 20.1216z m-80.384 295.1168c39.3216 7.8848 84.736 14.848 118.784-11.3664-24.4224-33.1776-68.096-41.8816-104.7552-54.9888-40.192-16.5888-50.688 60.2624-13.9776 66.3552z m384.256-20.992c0.8704 12.288 7.8336 23.6032 20.992 23.6032 34.8672 5.2736 71.5776 5.2736 104.7552-6.9632 20.0704-15.7184 10.496-48.0256-2.6112-66.3552-41.0624 13.1072-85.6064 25.2928-123.136 49.7664zM184.4736 544.4096a771.1744 771.1744 0 0 1 110.08 0c30.5152 4.4032 32.256 55.04 0.8192 61.1328-37.5296 2.6112-75.9808 2.6112-113.5104 0-31.4368-5.2224-29.696-58.4704 2.6112-61.1328z" fill="#9B9B9B" p-id="6892"></path></svg>