<?xml version="1.0" standalone="no"?><!DOCTYPE svg PUBLIC "-//W3C//DTD SVG 1.1//EN" "http://www.w3.org/Graphics/SVG/1.1/DTD/svg11.dtd"><svg t="1736242439500" class="icon" viewBox="0 0 1024 1024" version="1.1" xmlns="http://www.w3.org/2000/svg" p-id="8319" xmlns:xlink="http://www.w3.org/1999/xlink" width="200" height="200"><path d="M378.860069 820.756159H166.420741C112.426728 820.756159 68.80711 777.136542 68.80711 723.37831V164.811421C68.80711 111.053189 112.66251 67.433571 166.420741 67.433571h82.28782v46.448999H166.420741c-28.293806 0-51.164633 22.870827-51.164632 50.928851v558.566889c0 28.058024 22.870827 50.928851 51.164632 50.928851h212.439328v46.448998zM737.012498 582.145061H690.327718v-417.33364c0-28.058024-22.870827-50.928851-51.164633-50.928851h-80.165784V67.433571h80.165784c53.758232 0 97.613631 43.619618 97.613631 97.37785v417.33364z" fill="#e6e6e6" p-id="8320"></path><path d="M486.376532 180.137232h-167.169238c-49.278379 0-89.597053-40.082892-89.597052-89.597052s40.082892-89.597053 89.597052-89.597053h167.169238c49.278379 0 89.597053 40.082892 89.597053 89.597053s-40.082892 89.597053-89.597053 89.597052z m-167.169238-132.509325c-23.813953 0-42.912273 19.334101-42.912272 42.912273s19.334101 42.912273 42.912272 42.912272h167.169238c23.813953 0 42.912273-19.334101 42.912273-42.912272s-19.334101-42.912273-42.912273-42.912273h-167.169238zM580.453438 290.718858H225.130389c-12.732213 0-23.34239-10.374396-23.34239-23.34239 0-12.732213 10.374396-23.34239 23.34239-23.34239h355.323049c12.732213 0 23.34239 10.374396 23.34239 23.34239s-10.374396 23.34239-23.34239 23.34239zM580.453438 423.228183H225.130389c-12.732213 0-23.34239-10.374396-23.34239-23.34239 0-12.732213 10.374396-23.34239 23.34239-23.34239h355.323049c12.732213 0 23.34239 10.374396 23.34239 23.34239s-10.374396 23.34239-23.34239 23.34239zM580.453438 555.737509H225.130389c-12.732213 0-23.34239-10.374396-23.34239-23.34239s10.374396-23.34239 23.34239-23.34239h355.323049c12.732213 0 23.34239 10.374396 23.34239 23.34239s-10.374396 23.34239-23.34239 23.34239zM903.002827 979.673037h-44.798526v-46.448998h44.798526l2.593599-259.595672-256.058945-3.065162-2.593599 259.595671 123.313838 3.065163v46.448998h-120.720239c-27.114898 0-49.042597-22.163481-49.042597-49.514161V673.628367c0-27.350679 21.9277-49.514161 49.042597-49.51416h253.465346c27.114898 0 49.042597 22.163481 49.042598 49.51416v256.530509c0 27.114898-21.9277 49.514161-49.042598 49.514161z" fill="#e6e6e6" p-id="8321"></path><path d="M608.511462 979.673037h-33.00944c-12.732213 0-23.34239-10.374396-23.34239-23.34239 0-12.732213 10.374396-23.34239 23.34239-23.34239h24.992862v-84.881418c0-12.732213 10.374396-23.34239 23.34239-23.34239s23.34239 10.374396 23.34239 23.34239v95.727377c-0.471563 19.805664-17.683629 35.838821-38.668202 35.838821zM487.555441 979.673037h-18.390974c-21.220355 0-38.196638-16.033157-38.196638-35.603039v-108.223809c0-12.732213 10.374396-23.34239 23.34239-23.34239 12.732213 0 23.34239 10.374396 23.34239 23.34239v97.37785h10.138614c12.732213 0 23.34239 10.374396 23.34239 23.34239-0.471563 12.496431-10.845959 23.106608-23.578172 23.106608zM617.235386 742.005066h-96.198941c-12.732213 0-23.34239-10.374396-23.34239-23.34239 0-12.732213 10.374396-23.34239 23.34239-23.34239H617.235386c12.732213 0 23.34239 10.374396 23.34239 23.34239-0.235782 12.732213-10.610177 23.34239-23.34239 23.34239z" fill="#e6e6e6" p-id="8322"></path><path d="M454.074437 858.952798c-4.008289 0-7.780797-0.943127-11.553304-3.065163-11.081741-6.366106-15.09003-20.513009-8.723924-31.830532l66.726226-116.947732c6.366106-11.081741 20.513009-15.09003 31.830532-8.723923 11.081741 6.366106 15.09003 20.513009 8.723924 31.830532l-66.726226 116.947732c-4.244071 7.545015-12.024868 11.789086-20.277228 11.789086zM531.41084 1024c-37.01773 0-67.19779-30.415842-67.197789-67.669353 0-37.253511 30.18006-67.669353 67.197789-67.669353s67.19779 30.415842 67.19779 67.669353c0 37.253511-30.18006 67.669353-67.19779 67.669353z m0-88.889708c-11.317522 0-20.748791 9.431269-20.748791 21.220355s9.195487 21.220355 20.748791 21.220355c11.317522 0 20.748791-9.431269 20.748792-21.220355s-9.431269-21.220355-20.748792-21.220355zM814.11312 1024c-37.01773 0-67.19779-30.415842-67.19779-67.669353 0-37.253511 30.18006-67.669353 67.19779-67.669353s67.19779 30.415842 67.197789 67.669353c0 37.253511-30.18006 67.669353-67.197789 67.669353z m0-88.889708c-11.317522 0-20.748791 9.431269-20.748791 21.220355s9.195487 21.220355 20.748791 21.220355 20.748791-9.431269 20.748791-21.220355-9.431269-21.220355-20.748791-21.220355z" fill="#e6e6e6" p-id="8323"></path></svg>