<?xml version="1.0" standalone="no"?><!DOCTYPE svg PUBLIC "-//W3C//DTD SVG 1.1//EN" "http://www.w3.org/Graphics/SVG/1.1/DTD/svg11.dtd"><svg t="1749435350266" class="icon" viewBox="0 0 1024 1024" version="1.1" xmlns="http://www.w3.org/2000/svg" p-id="1564" xmlns:xlink="http://www.w3.org/1999/xlink" width="200" height="200"><path d="M907.183928 281.544972L621.624302 39.715092a171.335776 171.335776 0 0 0-219.379995 0L116.684681 281.033086a176.454642 176.454642 0 0 0-61.718905 134.187429v436.931823a171.335776 171.335776 0 0 0 171.335776 171.335775h571.119252a171.335776 171.335776 0 0 0 171.335776-168.191329v-439.491255a174.772729 174.772729 0 0 0-61.718905-134.18743z m-8.409567 537.480987a152.469096 152.469096 0 0 1-137.185623 140.841956H259.720438a195.906335 195.906335 0 0 1-114.370104-35.320179c-23.181153-23.034899-20.109833-73.126665-20.109833-105.521777V419.973749a143.913276 143.913276 0 0 1 57.770065-93.090245l247.899394-213.017974a125.63161 125.63161 0 0 1 163.364969 0l261.720334 213.017974a125.85099 125.85099 0 0 1 42.779098 93.090245z" fill="#595959" p-id="1565"></path><path d="M288.459217 538.073312h444.244489a36.563332 36.563332 0 0 0 38.318372-40.585299 39.707779 39.707779 0 0 0-38.318372-43.875999l-444.244489 5.26512a35.978319 35.978319 0 0 0-39.195892 38.976513 37.294599 37.294599 0 0 0 39.195892 40.219665z m154.151009 175.503996H264.912431c-8.33644 0-15.649106 16.746006-15.649106 43.875999s7.312666 42.267212 15.649106 42.267212H442.610226c8.848326 0 15.649106-21.937999 15.649107-48.921739s-6.727653-37.221472-15.57598-37.221472z" fill="#595959" p-id="1566"></path></svg>