<?xml version="1.0" standalone="no"?><!DOCTYPE svg PUBLIC "-//W3C//DTD SVG 1.1//EN" "http://www.w3.org/Graphics/SVG/1.1/DTD/svg11.dtd"><svg t="1733658853873" class="icon" viewBox="0 0 1024 1024" version="1.1" xmlns="http://www.w3.org/2000/svg" p-id="14088" xmlns:xlink="http://www.w3.org/1999/xlink" width="200" height="200"><path d="M237.805056 53.978624c0.40448 1.544704 0.1536 1.250816 1.677824 1.677312v0.561664h2.79552l0.559104 1.11872c1.273344 1.09824 2.118144 1.559552 4.473856 1.677312 1.094656 3.464704 1.819136 0.998912 3.915264 2.236928l1.118208 2.236928h2.236928q0.560128 1.118208 1.11872 2.236928h1.11872v0.559104c1.873408 0.969216 1.4336-0.909312 2.236928 1.677824 1.880576 0.415744 2.689024 1.216 3.914752 2.236928v0.559104h1.11872l0.559104 1.11872h0.559104l0.559616 1.677312h1.677312v1.11872c1.941504 1.029632 3.040256 2.409472 4.474368 3.91424l1.11872 0.559104 0.559104 1.677824 1.677824 0.559104 0.559104 1.677824h1.11872l0.559104 1.677824 1.677824 0.559104c0.660992 0.5632 0.89344 1.781248 1.11872 2.796032l1.677312 0.559104v1.11872l2.23744 1.118208 1.118208 3.355136h0.559616a7.168 7.168 0 0 1 1.677824 3.355648h1.677312c0.326656 3.416576 2.37312 3.934208 2.796544 7.2704h1.11872v0.559616c2.299392 1.890816-0.23552 3.43552 3.355136 4.473344a22.164992 22.164992 0 0 1 0.559616 4.473856l2.236928 0.559104v4.473856l1.677824 1.11872c0.918528 1.45664 1.059328 3.821056 1.118208 6.151168 1.545216 0.40448 1.251328 0.15616 1.677824 1.677824h0.559616v0.559104h-0.559616l0.559616 3.355136h0.559104c0.630272-0.961024 0.353792-0.75776 1.677824-1.118208l0.559104-2.236928h1.677824c0.528384-1.007104 0.774656-0.88064 1.11872-2.236928l2.236928-0.559104 0.559104-1.677824 3.355648-1.118208 0.559104-1.677824 2.796544-0.559104 0.559104-1.677824 2.796544-0.559104 1.677824-2.236928h1.677824l1.677824-2.236928h2.796032l1.677824-2.236928h2.236928v-0.559104h1.11872l1.118208-1.677824 5.033472-1.118208 0.559616-1.677824c3.0208 0.037376 4.05504-0.644608 6.15168-1.118208v-1.11872c3.060736-0.013312 5.393408 0.035328 7.2704-1.118208l0.559104-1.118208h1.11872v-0.559616h6.711296v-0.559104h1.118208l0.559104-1.118208h1.11872v-0.559616h11.744256V99.2768l13.422592-1.677312v0.559104h3.914752v0.555008h3.914752v0.5632h2.23744v0.559104h12.862976v0.559616l3.355648 1.118208v0.559104h8.38912v0.559616h2.796032v0.559104h1.11872l0.559104 1.118208h2.23744v0.559104h9.50784v0.559616h1.118208l0.559616 1.118208h1.677824v0.559104h10.066432v0.559616h1.11872l0.559104 1.118208h1.677824v0.559104h8.948224v0.559104h2.236928l0.559104 1.11872h1.11872v0.559104h2.236416v0.559104h9.50784l0.559616 1.11872h1.118208v0.559104h1.11872v0.559104h10.066432v0.559104l3.355648 1.11872v0.559104h9.507328v0.559104h1.677824v0.559104c0.745984 0.18688 1.493504 0.373248 2.235904 0.559616v0.559104h2.23744v0.559104h8.94976v0.559104h1.11616c0.18944 0.372736 0.37376 0.745984 0.5632 1.11872h1.67424v0.559104h10.06592v0.559104h1.12128c0.18432 0.372736 0.37376 0.745984 0.55808 1.11872h1.12128v0.559104h10.06592v0.559104h1.67424c0.18944 0.372736 0.37376 0.745472 0.5632 1.11872h1.11616v0.559104l11.74528 0.559104c0.18432 0.372736 0.37376 0.745472 0.55808 1.118208l2.79552 0.559616v0.559104h10.06592c0.18944 0.372736 0.37376 0.745472 0.5632 1.118208h1.11616v0.559616h1.12128v0.559104h9.50784v0.559104h2.23232c0.18944 0.372736 0.37376 0.745472 0.5632 1.118208h1.11616v0.559616l11.1872 0.559104v0.559104c1.11616 0.372736 2.23744 0.745472 3.3536 1.118208v0.559616h10.06592v0.559104h1.12128c0.18432 0.372736 0.37376 0.745472 0.55808 1.118208h1.67936v0.559616h9.50784v0.559104h1.67424c0.18944 0.372736 0.37376 0.745472 0.5632 1.118208h1.11616v0.559104l11.74528 0.559616c0.18432 0.372736 0.37376 0.745472 0.55808 1.118208l2.79552 0.559104v0.559616h10.06592c0.18944 0.372736 0.37376 0.745472 0.5632 1.118208h1.11616v0.559104h1.12128v0.559104h10.06592v0.559616h1.67424c0.18944 0.372736 0.37376 0.745472 0.5632 1.118208h1.11616v0.559104l11.74528 0.559616c0.18432 0.372736 0.37376 0.745472 0.55808 1.118208l2.79552 0.559104v0.559104h9.50784v0.559616h1.12128c0.18432 0.372736 0.37376 0.745472 0.55808 1.118208h1.67936v0.559104h10.06592v0.559104h1.11616c0.18944 0.373248 0.37376 0.745984 0.55808 1.11872h1.12128v0.559104h8.94976v0.559104h2.79552c0.18432 0.372736 0.37376 0.745984 0.55808 1.11872l3.3536 0.559104v0.559104h9.50784c0.18944 0.372736 0.37376 0.745984 0.5632 1.11872l2.79552 0.559104v0.559104h9.50784v0.559104h1.67424c0.18944 0.372736 0.37376 0.745984 0.5632 1.11872h1.11616v0.559104h8.94976v0.559104h2.79552c0.18432 0.372736 0.37376 0.745984 0.55808 1.11872l3.3536 0.559104v0.559104h9.50784l1.12128 1.677824h1.67936v0.559104h10.06592v0.559104h1.11616c0.18944 0.372736 0.37376 0.745984 0.55808 1.11872h1.67936v0.559104h11.1872v0.559104h2.23744c0.18432 0.372736 0.36864 0.745472 0.55808 1.11872h2.79552v0.559104h3.3536v0.559104h12.30336l1.12128 1.677824h1.11616v0.559104h7.2704q0.8448 1.118208 1.67936 2.236928h5.59104q0.8448 1.118208 1.67936 2.236928l5.59104 0.559104c0.34304 1.338368 0.1792 1.03936 1.12128 1.677312v0.559616h3.91168l1.12128 2.236928h3.3536c0.55808 0.745472 1.12128 1.490944 1.67936 2.236416l3.3536 0.559616 1.12128 2.236928h2.79552q0.5632 1.118208 1.11616 2.236416c2.03776 1.232384 2.3296-1.480192 3.35872 2.236928 3.56352 0.368128 2.90304 2.318848 6.14912 2.796032 0.41472 1.799168 0.76288 2.036736 2.79552 2.236928 0.18944 0.745472 0.37376 1.491456 0.5632 2.236928h1.67424c1.28512 2.258432 3.81952 3.268608 5.59616 5.03296q1.1136 1.39776 2.23744 2.796032h1.11616v1.11872l3.9168 3.355136v1.118208q1.1136 0.838656 2.23744 1.677824v1.118208h0.55808c0.768 0.82944 0.28672 0.733184 1.67936 1.11872v1.677824h0.55808v0.559104h1.67424c0.18944 0.93184 0.37376 1.864192 0.5632 2.796032h1.11616c0.32768 1.46176 1.09568 3.0208 1.67936 4.473856h1.67936c0.1536 1.5872 0.36352 2.40384 1.11616 3.355136 0.37376 0.186368 0.74752 0.372736 1.11616 0.559104 0.18944 1.118208 0.37376 2.236928 0.5632 3.355136h1.67424v0.558592c0.5888 0.645632 0.95232 3.4816 1.12128 4.473344h1.67936v0.559616h0.55808v3.91424h1.67424v0.559104h0.5632v4.471296h1.67424v0.5632h0.5632v5.592576s0.384 0.099328 0.55808 1.118208h1.67936v0.559104c0.99328 1.081856 0.6144 4.693504 0.55808 6.710784h1.67424c0.18432 1.02912 0.5632 1.118208 0.5632 1.118208v8.388608c0.37376 0.186368 0.7424 0.372736 1.11616 0.559104v1.118208h0.55808v1.11872h0.5632v45.855744h-1.12128c-0.18432 0.745472-0.37376 1.490944-0.55808 2.236928h-0.55808v8.388096h-0.5632v1.118208l-1.67424 0.559104c0.08192 3.4816-0.13824 5.094912-1.12128 7.2704h-1.67424v5.592064c-1.00864 0.528384-0.88064 0.774656-2.23744 1.11872v5.03296h-2.23744c-0.18944 0.745472-0.37376 1.491456-0.55808 2.236928h0.55808c0.5632 2.59072-0.67072 2.732032-2.79552 2.796032v4.473856c-0.74752 0.186368-1.49504 0.372736-2.23744 0.559104-0.47104 2.636288-2.26816 4.908544-3.35872 7.2704h-1.67424v3.91424c-0.63488 0.472064-0.08192-0.070656-0.5632 0.559104h-1.67424c-0.35328 1.624064-0.90112 2.23232-1.67936 3.355648h-0.55808q-0.28416 1.956864-0.55808 3.91424h-1.67936c-0.15872 0.997888-0.55808 1.11872-0.55808 1.11872v2.793984q-1.12128 0.559104-2.23744 1.118208v1.11872h-0.5632v1.677312c-0.36864 0.186368-0.7424 0.373248-1.11616 0.559616q-0.5632 1.677312-1.11616 3.355136c-0.5632 0.372736-1.12128 0.745472-1.67936 1.118208v1.11872h-0.55808v2.236928q-1.12128 0.559104-2.23744 1.118208v2.796032l-2.79552 2.236928v1.677824l-1.12128 0.559104v1.118208h-0.55808v1.11872h-0.55808c-0.92672 1.873408 0.86016 1.481216-1.67936 2.236928l-1.12128 4.473344c-3.3536 1.019392-1.07008 1.705984-2.23232 3.914752q-1.12128 0.838656-2.23744 1.677824v1.677312c-0.5632 0.372736-1.12128 0.745984-1.67936 1.11872v1.118208h-0.55808v2.236928q-1.12128 0.559104-2.23744 1.118208v2.796544c-0.01536 0.046592-0.34304-0.087552-0.55808 1.118208-3.34336 0.889856-1.03936 1.092096-2.23744 3.355136l-1.12128 0.559616a8.01792 8.01792 0 0 0-1.67936 3.91424h-1.11616q-0.5632 2.236416-1.11616 4.473856h-1.67936a26.00192 26.00192 0 0 1-1.12128 4.473856l-1.67424 0.559104c-0.18944 0.93184-0.37376 1.864192-0.5632 2.796032-0.36864 0.186368-0.7424 0.372736-1.11616 0.559104q-0.5632 1.956864-1.11616 3.914752c-0.5632 0.186368-1.12128 0.372736-1.67936 0.559104q-0.28416 1.956864-0.55808 3.91424h-1.12128a4.202496 4.202496 0 0 1-1.11616 1.11872c-1.152 2.307072 0.91136 3.030528-2.23744 3.91424-0.37376 3.201536-2.36544 3.476992-2.79552 7.2704h-1.67936a25.539584 25.539584 0 0 1-1.12128 4.473856l-1.67424 0.559104q-0.28416 1.677312-0.55808 3.355648c-0.5632 0.372736-1.12128 0.745472-1.67936 1.118208-0.18944 0.745472-0.37376 1.491456-0.55808 2.236928-0.5632 0.372736-1.12128 0.745472-1.67936 1.118208-1.17248 2.064384 0.84992 3.024896-2.23744 3.914752a26.000384 26.000384 0 0 1-1.11616 4.473856c-0.5632 0.186368-1.12128 0.372736-1.67936 0.559104a11.77856 11.77856 0 0 1-1.67936 4.473856c-0.37376 0.186368-0.7424 0.372736-1.11616 0.559104v1.677312q-1.12128 0.838656-2.23744 1.677824c-1.29024 2.486272 1.45408 2.937856-2.23744 3.914752 0.00512 1.92-0.10752 3.603968-1.12128 4.474368-0.55808 0.18432-1.11616 0.37376-1.67424 0.55808-0.18944 0.93184-0.37376 1.86368-0.5632 2.79552l-1.67424 1.12128c-1.10592 2.01728 1.44896 1.87392-1.67936 2.79552q-0.5632 2.23488-1.11616 4.46976-1.12128 0.5632-2.23744 1.12128c-1.39776 2.38592 1.59232 2.90816-2.23744 3.91168-0.1024 2.00192-0.29184 2.2528-1.12128 3.35872h-0.55808q-0.5632 1.9584-1.11616 3.91168c-1.54624 0.40448-1.2544 0.15872-1.67936 1.67936h-0.55808v2.79552q-1.12128 0.5632-2.23744 1.12128v2.23232c-0.24576 0.50688-0.70656-0.01536-1.12128 1.67936h-1.11616q-0.28416 1.39776-0.55808 2.79552h-1.12128c-0.08192 0.44544-0.95744 4.21888-1.11616 4.47488q-1.12128 0.5632-2.23744 1.11616v2.80064c-0.01536 0.04608-0.32768-0.0768-0.55808 1.11616h-1.67936c-0.33792 3.78368-2.35008 3.7632-2.79552 7.2704-1.54624 0.40448-1.2544 0.1536-1.67936 1.67936h-0.55808v2.79552c-0.74752 0.36864-1.48992 0.7424-2.23744 1.11616-1.21344 2.03776 1.2032 2.91328-2.23744 3.9168-0.18432 0.93184-0.37376 1.86368-0.55808 2.79552-0.37376 0.18432-0.74752 0.37376-1.12128 0.55808-0.86528 1.09056-0.98816 2.00704-1.11616 3.9168-1.34144 0.33792-1.03936 0.17408-1.67936 1.11616h-0.55808v2.79552c-0.01536 0.0512-0.34816-0.1024-0.55808 1.12128h-1.67936q-0.5632 2.23488-1.11616 4.46976h-1.12128c-1.13664 2.83136-2.688 4.4544-3.3536 7.82848-3.01056 0.9984-0.6656 0.56832-1.67936 2.80064h-0.55808v1.11616q-1.12128 0.5632-2.23744 1.11616v2.80064c-0.74752 0.55808-1.48992 1.11616-2.23744 1.67424-0.52224 0.8448 0.22528 1.73056-0.55808 2.23744h-1.12128c-0.37376 1.48992-0.7424 2.98496-1.11616 4.47488q-1.12128 0.5632-2.23744 1.11616v1.12128c-0.55808 0.37376-1.12128 0.7424-1.67936 1.11616 0.47104 0.63488-0.07168 0.08192 0.55808 0.55808 1.2288 2.2528 3.2768 3.34848 3.9168 6.15424h1.67936c0.59904 3.2256 2.6368 4.16768 3.3536 7.2704h1.67936c0.32768 3.41504 2.37056 3.93216 2.79552 7.2704h1.67936q0.55296 2.23488 1.11616 4.46976c1.54624 0.40448 1.24928 0.15872 1.67936 1.67936h0.55808c0.18432 1.12128 0.37376 2.23744 0.55808 3.3536 0.55808 0.18944 1.12128 0.37376 1.67936 0.5632 0.08192 2.32448 0.70144 2.6368 1.11616 4.46976h1.12128c0.18432 1.3056 0.37376 2.6112 0.55808 3.9168h0.55808c0.64 0.63488 0.00512 0.22016 1.12128 0.55808a21.958656 21.958656 0 0 1 0.55808 4.47488c2.62144 1.14176 2.3808 1.87392 2.23744 5.59104h1.11616c0.37376 1.6128 1.00352 1.40288 1.12128 1.67936 0.18432 1.86368 0.37376 3.72736 0.55808 5.59104 0.55808 0.18432 1.12128 0.37376 1.67936 0.55808q0.27648 3.35616 0.55808 6.71232h1.11616c0.18944 0.74752 0.37376 1.48992 0.5632 2.23744h0.55808v6.71232c0.55808 0.36864 1.11616 0.7424 1.67936 1.11616 1.23904 2.304-0.26624 6.14912 0.55808 8.94976h0.55808v2.79552h0.55808c0.18944 0.7424 0.37376 1.48992 0.5632 2.23232h0.55808c0.768 2.08384 0.05632 4.72576 0 6.71232h174.4896v0.55808h1.67424c0.37376 0.5632 0.74752 1.12128 1.12128 1.67936 0.93184 0.18432 1.86368 0.37376 2.79552 0.55808q0.83712 1.12128 1.67936 2.23744h1.11616c0.18944 0.55808 0.37376 1.12128 0.55808 1.67936 0.60416 0.77824 2.75968 1.93536 3.9168 2.23744v265.6256h-1.11616v0.55808c-0.5632 0.18944-1.12128 0.37376-1.67936 0.5632-0.18944 0.36864-0.37376 0.7424-0.55808 1.11616h-0.5632c-0.18432 0.55808-0.36864 1.11616-0.55808 1.67936-1.72544 1.39264-2.39104 0.24064-2.79552 3.3536H34.793472l-0.559104-2.79552h-0.559616v-0.55808h-1.677312c-1.334272-0.85504 0.061952-1.99168-2.796544-2.79552-0.382464-1.90976-1.246208-2.58048-1.677824-4.47488h-1.11872c-1.012736-84.98176-1.145344-173.94176 0-258.9184h1.11872q0.838656-2.23488 1.677824-4.47488h1.11872l1.677824-2.79552h1.677824c0.186368-0.55808 0.372736-1.11616 0.559104-1.67936l4.474368-1.67424v-1.12128c7.802368-0.70656 17.592832-0.55808 26.285568-0.55808h154.914304l-0.559104-6.14912c0.372736-0.18944 0.745984-0.37376 1.11872-0.5632v-1.67424h0.559104v-1.12128h0.559104v-8.38656h0.559616l0.559104-2.79552c0.372736-0.18432 0.745472-0.37376 1.11872-0.55808v-1.12128h0.559104v-6.14912h0.559104v-1.12128h0.559616v-1.11616c0.372736-0.18432 0.745472-0.37376 1.118208-0.55808v-5.59104q1.118208-0.8448 2.236928-1.67936v-3.9168h0.559616c0.186368-0.7424 0.372736-1.48992 0.559104-2.23744 0.559104-0.36864 1.11872-0.7424 1.677824-1.11616v-4.47488h1.677824v-0.55808c0.586752-0.64512 0.950272-3.4816 1.118208-4.47488 0.559616-0.18432 1.11872-0.37376 1.677824-0.55808-0.011264-2.12992 0.201728-3.328 1.11872-4.47488 0.372736-0.18432 0.745472-0.37376 1.11872-0.55808l0.559104-3.3536 1.677824-1.12128c1.419264-2.22208-0.512-3.6096 2.796032-4.47488 0.02816-1.93536 0.090112-3.57888 1.11872-4.46976 0.559104-0.18944 1.11872-0.37376 1.677824-0.5632l0.559104-2.79552c0.559104-0.36864 1.11872-0.7424 1.677824-1.11616l0.559104-2.79552h1.677824c0.610304-3.04128 2.658304-4.25472 3.355648-7.2704h1.11872c0.186368-0.55808 0.372736-1.12128 0.559104-1.67936l2.236928-1.67424c0.186368-0.74752 0.373248-1.49504 0.559616-2.23744h0.559104c1.00608-1.24928 1.82784-2.01728 2.236928-3.9168h1.11872c0.392704-0.77824 0.811008-0.6912 1.118208-1.11616 1.027072-1.42848-0.610304-1.0496 1.677824-1.67936 0.186368-0.74752 0.373248-1.48992 0.559616-2.23744h1.118208a25.069056 25.069056 0 0 1 3.914752-5.03296c0.372736-0.18432 0.745984-0.37376 1.11872-0.55808v-1.12128c0.372736-0.18432 0.745472-0.36864 1.11872-0.55808q0.838656-1.1136 1.677312-2.23744c1.590272-1.59232 3.7888-2.5344 4.474368-5.03296h1.11872q2.236416-2.5088 4.473856-5.03296h1.117696v-0.55808c0.828928-0.768 0.731648-0.28672 1.118208-1.67936 0.745472-0.18432 1.491456-0.36864 2.236928-0.55808v-1.11616c0.559616-0.18944 1.11872-0.37376 1.677824-0.55808 0.745984-0.93184 1.491456-1.8688 2.23744-2.80064 0.559104-0.18432 1.118208-0.36864 1.677824-0.55808l0.559104-1.67424c0.745472-0.18944 1.491456-0.37376 2.236928-0.5632v-1.11616c1.118208-0.55808 2.236928-1.12128 3.355648-1.67936l0.559104-1.67424h1.11872c1.153024-0.512 1.2928-0.88576 1.677824-2.23744h1.677824q0.838656-1.12128 1.677824-2.23744h1.118208v-0.55808c1.522176-0.97792 1.019392 0.5376 1.677824-1.67936l3.355648-1.12128 0.559104-1.67424h1.677824c0.559104-0.74752 1.11872-1.48992 1.677824-2.23744 1.9328-1.13664 2.484736 0.8448 3.355648-2.23744q1.677312-0.5632 3.355648-1.11616c0.186368-0.5632 0.372736-1.12128 0.559104-1.67936 1.118208-0.18432 2.23744-0.37376 3.355648-0.55808 0.186368-0.5632 0.372736-1.12128 0.559104-1.67936 2.403328-0.128 2.59072-0.64 3.914752-1.67936v-0.55808c0.932352-0.18432 1.864704-0.37376 2.796544-0.55808 0.559104-0.74752 1.11872-1.48992 1.677824-2.23744 1.118208-0.18432 2.236928-0.37376 3.355648-0.55808 0.186368-0.55808 0.372736-1.12128 0.559104-1.67936 4.0448-0.16384 3.243008-1.77152 5.592576-2.79552h2.236928c0.559104-0.74752 1.11872-1.48992 1.677824-2.23744h2.796544v-0.55808h1.118208c0.372736-0.55808 0.745984-1.12128 1.11872-1.67936h2.796544c0.037888-0.01024-0.0512-0.32256 1.11872-0.55808 0.186368-0.55808 0.372736-1.11616 0.559104-1.67936q2.23744-0.27648 4.474368-0.55808 0.838656-1.1136 1.677824-2.23744h3.355648q0.838656-1.1136 1.677312-2.23744h3.355648v-0.55808h1.11872c0.372736-0.55808 0.745472-1.11616 1.11872-1.67936q2.515968-0.27648 5.03296-0.55808 0.839168-1.1136 1.677824-2.23744 2.796544-0.27648 5.592576-0.55808c0.186368-0.55808 0.373248-1.11616 0.559616-1.67936 2.126848 0.03584 4.80256 0.2816 6.15168-0.55808l1.11872-1.67424q3.075072-0.28416 6.15168-0.5632l1.11872-1.67424h1.118208v-0.5632h5.592576c0.559104-0.7424 1.11872-1.48992 1.677824-2.23232h6.152192v-0.5632h1.677312l1.11872-1.67424q4.194304-0.28416 8.38912-0.5632v-0.55808h1.118208c0.186368-0.37376 0.373248-0.7424 0.559616-1.11616h1.677824v-0.55808h7.829504v-0.5632h1.118208c0.186368-0.36864 0.373248-0.7424 0.559616-1.11616h1.118208v-0.55808h10.066944v-0.5632h1.677824v-0.55808c0.745472-0.18432 1.491456-0.37376 2.236928-0.55808v-0.55808h12.862976v-0.55808h3.355648v-0.5632h1.677824v-0.559104h1.677824v-0.559616h3.914752c4.644864-1.33632 12.269056-0.558592 17.896448-0.559104h45.858304a34.082304 34.082304 0 0 1 0.55808-6.710272c0.5632-0.186368 1.12128-0.373248 1.67936-0.559616-0.03584-2.644992 0.08704-4.54912 1.12128-6.151168l1.67424-1.118208v-3.914752l0.55808-0.559104h1.67936V487.3728c1.00864-0.527872 0.88064-0.774144 2.23744-1.118208 0.15872-1.001472 0.55808-1.11872 0.55808-1.11872v-2.796032q1.12128-0.559104 2.23744-1.118208v-1.677824h0.55808v-1.118208c0.5632-0.372736 1.12128-0.745984 1.67936-1.11872v-2.236928h0.55808c0.64-0.636416 0.00512-0.22272 1.12128-0.559104q0.5632-2.236416 1.11616-4.473856 1.12128-0.559104 2.23744-1.118208v-2.796032q1.12128-0.838656 2.23744-1.677824c0.18944-0.745472 0.37376-1.490944 0.55808-2.236928l1.12128-0.559104v-1.120256h0.55808c1.00864-2.130432-0.49664-2.576384 2.23744-3.355648 0.20992-1.232384 0.52224-1.009664 0.55808-1.118208v-2.796032q1.12128-0.559104 2.23744-1.11872 0.28416-1.677312 0.55808-3.355136c0.5632-0.372736 1.12128-0.745472 1.67936-1.118208 0.18944-0.745472 0.37376-1.491456 0.55808-2.236928 0.5632-0.372736 1.12128-0.745984 1.67936-1.11872 0.18432-1.118208 0.37376-2.236928 0.55808-3.355136q1.12128-0.559104 2.23744-1.118208V437.0432c0.01536-0.0512 0.32768 0.07424 0.55808-1.11872h1.67936q0.28416-1.677312 0.55808-3.355136l1.12128-0.559104c0.76288-0.9728 0.91648-1.761792 1.11616-3.355648 2.24768-0.6144 2.42176-2.72384 2.79552-5.03296 0.5632-0.186368 1.12128-0.372736 1.67936-0.559104 0.18432-1.118208 0.37376-2.236928 0.55808-3.355136 0.5632-0.186368 1.12128-0.372736 1.67936-0.559104 0.18432-0.932352 0.37376-1.864192 0.55808-2.796544 0.55808-0.372736 1.12128-0.745472 1.67936-1.118208q0.5632-1.956864 1.11616-3.914752c0.5632-0.186368 1.12128-0.372736 1.67936-0.559104a16.407552 16.407552 0 0 1 0.55808-3.91424h1.67936q0.5632-2.23744 1.11616-4.473856h1.12128v-0.559104h0.55808v-1.67936c0.55808-0.372736 1.12128-0.745472 1.67936-1.118208 0.18432-0.932352 0.37376-1.864192 0.55808-2.796032h0.55808c0.18944-0.559616 0.37376-1.11872 0.5632-1.677824-0.5632-0.186368-1.12128-0.372736-1.67936-0.559104V393.4208h-1.12128v-0.559104l-11.74016-0.559104c-0.18944-0.372736-0.37376-0.745472-0.5632-1.118208l-2.79552-0.559616v-0.557568h-10.06592c-0.18432-0.372736-0.37376-0.745472-0.55808-1.118208l-2.79552-0.559616v-0.559104h-9.50784v-0.559104h-1.67936c-0.18432-0.372736-0.37376-0.745472-0.55808-1.118208h-1.12128v-0.559616H554.9056v-0.559104h-3.9168c-0.18432-0.372736-0.36864-0.745472-0.55808-1.118208l-2.79552-0.559104v-0.559616h-9.50784v-0.559104c-1.11616-0.372736-2.23744-0.745472-3.3536-1.118208v-0.559616h-10.06592v-0.559104h-1.12128c-0.18432-0.372736-0.37376-0.745472-0.55808-1.118208h-1.12128v-0.559104h-8.94464v-0.559616h-2.797568v-0.559104h-1.118208l-0.559104-1.118208h-2.23744v-0.559616H496.7424v-0.559104h-1.118208q-0.280576-0.559104-0.559616-1.118208h-1.677824v-0.559104h-9.506816v-0.559616H482.2016l-0.559104-1.118208h-1.11872v-0.559104l-11.744256-0.559616-0.559104-1.118208-2.796544-0.559104v-0.559104H455.35744l-0.559104-1.11872h-1.118208v-0.559104h-1.11872v-0.559104h-10.066944v-0.559104l-3.355136-1.11872v-0.559104h-8.948224v-0.559104h-2.23744v-0.559616h-1.118208l-0.559104-1.118208H424.0384v-0.559104h-9.506816v-0.559104h-1.11872l-0.559104-1.11872h-1.677824v-0.559104h-10.066432v-0.559104h-1.11872l-0.559104-1.11872h-1.11872v-0.559104h-9.507328v-0.559104h-2.236928l-0.559616-1.11872h-1.118208v-0.559104h-2.236928v-0.559104H373.1456l-0.559104-1.11872-2.796032-0.559104v-0.559104h-8.388608l-1.11872-1.677824h-1.118208v-0.559104h-5.592576v-0.559104h-1.11872l-1.11872-1.677824-5.592576-0.559104-1.118208-1.677824h-1.11872v-0.559104h-3.355648l-1.677824-2.236928h-3.355136l-1.677824-2.236928-3.355648-0.559104v-0.559104c-0.636928-0.636928-0.22272 0-0.559104-1.118208l-3.355648-0.559616-1.677824-2.236928H322.2528q-0.560128-1.118208-1.11872-2.236416l-2.796544-0.559616-1.677824-2.236928c-0.881664-0.536576-1.61792 0.144896-2.236928-0.559104l-0.559104-1.677312h-1.6768l-0.559104-1.677824c-0.572928-0.67072-2.153472-0.681984-2.796544-1.118208v-0.559616c-0.99584-0.800256-1.339904-1.268224-2.796032-1.677312v-1.11872l-1.677824-0.559104-2.796544-3.355136H300.4416v-1.11872l-3.355648-2.796032v-1.118208l-3.355648-2.796032v-1.11872l-1.677824-1.118208-0.559104-1.677824h-1.117696c-1.429504-1.1776 0.046592-2.010624-2.796032-2.796032-0.393728-2.427904-2.843648-6.713344-5.033472-7.2704-0.33536-3.785216-2.350592-3.761664-2.796544-7.2704H278.6304c-0.441344-1.805824-1.038336-1.928704-1.11872-4.473344-1.338368-0.339456-1.03936-0.177664-1.677824-1.11872h-0.559104v-2.796032h-0.559616V278.784l-1.677312-1.11872q-0.560128-3.075072-1.11872-6.151168h-1.677824a33.92512 33.92512 0 0 0-0.559104-6.710784h-1.677824v0.559104c-0.702464 0.531968-0.593408 1.256448-1.11872 1.677824h-1.118208v0.559104c-0.8192 0.768-0.74752 0.277504-1.11872 1.677824h-1.677824c-0.528384 1.007104-0.774144 0.88064-1.11872 2.236928-1.019904 0.223744-2.226176 0.4608-2.796032 1.118208l-0.559104 1.677824H256.8192l-1.677824 2.236928h-1.677824l-1.677824 2.236928-2.236928 0.559104-1.677824 2.236928h-2.236928l-1.677824 2.236928h-2.23744v0.559104h-1.118208l-1.117696 1.678336-3.355648 0.559616-1.677824 2.236928h-3.914752l-1.677824 2.236416h-3.914752v0.559616h-1.118208l-1.11872 1.677312-6.711296 0.559104-1.118208 1.677824H213.1968v0.559104h-7.2704v0.559616h-1.677824l-0.559104 1.118208h-1.11872v0.559104h-36.91008v-0.559104L162.304 296.6784v-0.559616h-7.2704v-0.559104h-1.677824l-1.11872-1.677824-7.82848-0.557056-1.11872-1.677312h-1.677312v-0.559616h-5.593088v-0.559104h-1.118208l-0.559104-1.118208H133.2224v-0.559104h-5.591552v-0.559616h-1.11872L125.952 287.171584h-1.11872v-0.559104l-7.2704-0.559616-1.118208-1.677312h-1.677824v-0.559104H108.61568l-1.118208-1.677824h-1.11872v-0.559104h-6.15168v-0.559616h-1.11872l-1.118208-1.677312-7.830016-0.558592v-1.11872l-2.236928-0.559104v-0.559616h-8.388608c-0.404992-1.544704-0.15616-1.251328-1.677824-1.677824-1.212416-1.11104-5.623296-0.6144-7.830016-0.559104-0.918528-1.732096-1.061376-1.004032-1.118208-3.914752 2.174464-1.766912 0.730624-2.395648 0-3.91424-0.6016-1.249792 0.587776-0.623104-0.559616-1.677824-0.636928-0.636928 0-0.22272-1.118208-0.559104v-16.776704h1.118208l0.559616-1.677312h0.559104l0.559104-2.796032c1.024-1.405952 1.97632 0.07424 2.796544-2.796544l2.236928-0.559104 0.559104-1.677312c0.733184-0.29696-0.172544-0.260096 0.559616-0.559616h2.236928l1.677824-2.236928h4.473856l1.677824-2.236416h5.033472l1.11872 1.677312h1.118208v0.559104h6.152192l1.118208 1.677824h1.11872v0.559104h6.15168v0.559616h1.11872l1.118208 1.677312 7.830016 0.559104 1.118208 1.677824h1.11872v0.557056h6.15168v0.5632h1.11872l0.559104 1.118208h1.11872v0.559104h6.15168l1.11872 1.677824h1.118208v0.559104l7.2704 0.559104q0.560128 0.838656 1.11872 1.677824h1.6768v0.556032h6.15168l1.11872 1.677824h1.11872v0.559104H162.304v0.559104h1.11872l0.559104 1.11872h1.118208v0.559104l12.303872 0.559104v0.559104h2.236928v0.559616c3.288064 0.982528 9.1136-0.5248 11.185664-1.11872h6.15168v-0.559104h6.152704v-0.559104h1.11872l0.559104-1.11872h1.117696v-0.559104h5.033472l1.677312-2.236928c0.136192-0.065536 4.796928-0.516096 5.033472-0.559104l0.559616-1.677824c1.28-0.084992 3.77344-0.351744 4.473856-1.118208l0.559104-1.677824h2.796544l1.118208-2.236928c2.1504-1.315328 2.429952 1.261056 3.355648-2.236928h1.677824c1.149952-1.925632 1.720832-1.618432 3.355648-2.796032l1.677824-2.236928h1.11872v-0.559104c0.828928-0.768 0.733696-0.284672 1.118208-1.677312h1.11872q0.838656-1.398784 1.677824-2.796032l1.677824-0.559616 0.559104-1.677312 1.677824-1.11872v-1.118208l1.677824-1.11872v-1.118208l1.118208-1.11872V221.184l2.23744-1.118208v-1.677824l1.677824-1.11872 0.559104-3.355136 2.236928-1.118208v-3.355648h0.559104c0.63744-0.636416 0-0.22272 1.11872-0.559104l1.11872-6.151168 1.677824-1.11872c0.879616-1.8432-0.426496-5.058048 1.118208-6.710272 0.63744-0.636928 0-0.22272 1.11872-0.559616l1.118208-9.506304h1.11872v-1.677824h0.559104v-10.06592h0.559616v-5.03296h0.559104l-0.559104-7.828992h-0.559616V149.0432l-1.677824-1.11872v-1.118208h-0.559104v-5.590016l-1.677824-1.11872c-0.910336-1.446912-1.0752-3.829248-1.118208-6.151168h-1.677824a22.160384 22.160384 0 0 1-0.559616-4.473856c-1.8944-0.813568-2.25536-1.093632-2.236928-3.91424-0.636928-0.63744-0.22272 0-0.559104-1.11872-2.671104-0.827904-0.497664-0.655872-1.677824-2.236928h-0.559104v-0.559104h-1.11872c-0.844288-4.00384-4.533248-7.263744-7.2704-9.506816l-1.11872-2.236928H242.2784l-0.559616-1.677312c-1.181184-1.439744-1.978368 0.054784-2.796032-2.796032l-2.236928-0.559616v-1.118208c-0.603648-0.3072-0.937984-1.017344-1.11872-1.118208h-1.677824l-1.677824-2.236928h-1.677824l-1.677824-2.236928-2.796032-0.559104-1.677824-2.236928h-2.796544l-1.677824-2.236928h-3.914752l-1.677824-2.236928h-4.473856v-0.559104h-1.677824l-1.11872-1.677824h-1.677824v-0.559104h-5.591552L198.656 86.4128h-1.677824v-0.559104H190.82752q-0.560128-0.838656-1.11872-1.677824h-1.11872v-0.559104h-5.592576v-0.559104h-1.677824l-1.118208-1.677824h-1.677824v-0.559104h-6.152192l-1.118208-1.677824h-1.11872v-0.559104h-6.15168v-0.559104h-1.11872v-1.11872c-1.140736-0.180224-1.118208-0.559104-1.118208-0.559104h-6.152192v-0.559104h-1.118208l-0.559616-1.118208-2.796032-0.559616v-0.559104h-5.592576l-0.559616-1.118208h-1.118208v-0.559104h-1.11872v-0.559616h-6.15168l-1.11872-1.677312h-1.118208v-0.559616h-2.796544v-0.559104h-1.11872l-1.118208-1.677312-2.796544-0.559616-1.118208-2.236928h-1.677824l-0.559616-1.677312-1.677312-0.559104c-0.687616-0.57856-2.006016-3.896832-2.23744-5.03296h-1.118208l-0.559616-13.421568h0.559616v-3.91424c2.034688-0.548352 2.434048-2.382336 2.796032-4.473856h1.11872l1.677824-2.796032h1.677824l0.55808-1.677824 4.473856-1.677824v-1.118208c3.488256-0.218112 7.54176-0.589312 11.744768-0.559104h3.355648v0.559104h1.677824l1.118208 1.677824h1.11872v0.559104H155.0336l1.11872 1.677824h1.118208v0.559104h6.152192v0.559104h1.118208l1.11872 1.677824 7.2704 0.559104 0.559104 1.118208h1.11872v0.559104h1.118208v0.559616h6.152192l1.118208 1.677824h1.11872v0.559104h6.15168v0.559104h1.11872l1.118208 1.677824H198.656v0.559104h1.677824l1.118208 1.677824 7.2704 0.559104 0.559616 1.118208h1.118208v0.559104h1.11872v0.559104h6.152704l1.11872 1.677824h1.118208V48.9472h5.033472v0.559104h1.11872l1.118208 1.677824 5.033472 0.559616 0.559616 1.118208c1.314304 1.102848 2.499584 1.064448 5.03296 1.116672zM348.53888 153.518592h-2.796544c-0.527872 1.007616-0.774144 0.88064-1.118208 2.236928h-2.236928c-0.528384 1.007616-0.774656 0.88064-1.11872 2.236928a6.5536 6.5536 0 0 0-3.355648 1.677824l-0.559104 1.118208c-0.879616 0.537088-1.624576-0.1536-2.236928 0.559616l-0.559616 1.677312-1.677824 0.559104v1.11872l-2.796032 1.677824-0.559104 1.677312h-1.11872l-0.559104 1.677824h-0.559616v0.559104h-1.118208c-0.6144 0.5632-0.4096 1.123328-0.559616 2.236928h-1.118208c-0.733184 3.038208-3.191296 4.203008-3.914752 7.2704h-1.677824c-0.160256 1.977856-0.754176 2.731008-1.11872 4.473856l-1.677824 0.559104c-0.069632 1.901056-0.27904 2.840064-1.118208 3.91424l-1.11872 0.559616v3.91424l-0.559104 0.559104-1.677824 0.559104c-0.007168 1.913856 0.167424 3.803648-0.559616 5.03296l-1.118208 0.559616v1.118208h-0.559616l-0.559104 7.2704-1.119232 0.55808v1.11872h-0.559616v1.118208h-0.559104v30.19776h0.559104v1.11616l1.11872 0.559616v1.118208h0.559104l0.559104 7.828992c1.545216 0.40448 1.251328 0.15616 1.677824 1.677824h0.559616v3.91424h0.559104v1.11872l1.677824 1.118208v3.355136s0.3584 0.016896 0.559104 1.11872l1.677824 0.559104c0.082432 2.32704 0.704 2.640384 1.11872 4.473856h1.118208c0.236544 2.284032 1.217024 2.502144 2.23744 3.91424h0.559104v2.236928l2.236928 1.677824 0.559104 1.677824h1.11872v1.118208l2.236928 1.677824v1.118208l2.23744 1.677824 4.473856 5.03296c1.363968 1.324544 2.746368 1.131008 3.355648 3.355136 1.754112 0.313344 2.342912 0.544768 2.796032 2.236928A7.7312 7.7312 0 0 1 344.064 296.6784q0.280576 0.559104 0.559616 1.118208h1.677824l1.677824 2.236928c2.057728 1.184768 3.011584-0.862208 3.914752 2.236928a22.163968 22.163968 0 0 0 4.473856 0.559104c0.40448 1.544704 0.1536 1.250816 1.677824 1.677824 0.65792 0.591872 4.03456 0.94976 5.033472 1.118208v1.11872c1.2928 0.213504 3.92448 0.774144 5.033472 1.118208h2.796032l0.559104 1.118208h1.11872v0.559616h1.11872v0.559104h9.507328v0.559104h1.11872l0.559104 1.118208h1.677824v0.559616h10.066432v0.559104h1.11872l0.559104 1.118208h1.11872v0.559104h8.388608v0.559104h3.355648l0.559616 1.118208 2.796032 0.559104v0.559616h10.066944l0.559104 1.118208h1.11872v0.559104h1.118208v0.559616h10.066944v0.559104h1.118208v0.559104c1.737216 0.892928 2.981888 1.04448 5.592576 1.118208v-8.387584l1.677824-1.118208v-1.677824h0.559616V301.71136h0.559104v-1.11616h1.118208v-2.236928h0.559616v-8.390656h0.559104v-1.677824l1.11872-0.559104V286.0544h0.559104l0.559104-9.506304h0.559616v-1.11872h0.559104v-1.118208l1.11872-0.559104v-8.949248h0.559104l0.559104-2.796032h1.11872a55.99744 55.99744 0 0 1 1.118208-12.302848h1.11872l0.559104-11.184128 1.677824-1.11872v-2.236928h0.559616v-8.388096h0.559104v-1.118208l1.118208-0.559104v-1.677824h0.559616v-8.947712l1.118208-0.559104 0.559616-2.796032h0.559104l0.559104-9.506816h0.559616l1.118208-3.355136h0.559616v-8.9472h0.559104v-1.677824l1.677824-1.11872v-8.9472h0.559104l0.559104-2.796032h1.11872l0.559104-11.18464 1.677824-1.118208 0.559104-6.710784c-1.770496-0.445952-2.644992-1.77664-3.914752-2.236928h-10.06592v-0.559104h-1.677824l-0.559104-1.118208h-1.11872v-0.559104h-8.38912v-0.559616h-3.355136q-0.280576-0.559104-0.559616-1.118208l-3.355648-0.559104v-0.559104h-9.507328l-0.559104-1.11872H431.3088v-0.559104h-1.118208v-0.559104h-10.066432v-0.559616L416.768 144.571392v-0.559104h-8.947712v-0.559104h-2.796032L404.465152 142.336l-3.915264-0.559104v-0.559104h-19.57376v0.555008h-2.796544v0.5632l-2.236928 0.559104v0.559616h-2.236928v0.559104h-6.152192v0.559104h-1.118208l-1.11872 1.677824h-5.033472l-1.677824 2.236928h-3.355136v0.55552h-1.11872l-1.11872 1.677312-3.914752 1.11872z m167.77728 21.25056h-1.11616q-0.5632 5.871104-1.12128 11.743232c-0.37376 0.186368-0.7424 0.373248-1.11616 0.559616v1.118208h-0.55808v1.11872h-0.5632v9.506304l-1.118208 0.559104v1.11872h-0.559616v1.118208h-0.559104v8.947712l-1.118208 0.559104v1.677824h-0.559616v1.117696h-0.559104v7.828992h-0.559104v2.236928h-0.55808v1.11872l-1.118208 0.559104v1.677312h-0.559616V235.7248H504.0128v1.677312l-1.118208 0.559616v1.118208h-0.559616v8.947712h-0.559104v1.674752h-1.11872l-1.118208 11.743744-1.11872 0.559104v1.677824h-0.559104v1.118208h-0.559616v8.947712l-1.118208 0.559104v1.677312l-1.11872 0.559616v8.9472h-0.559104l-1.11872 3.355648h-0.559104v8.388096h-0.559104L491.708928 300.032l-1.118208 0.559104v2.796032h-0.559616v7.828992H489.472v1.11872l-1.118208 0.559104v1.678848h-0.559616v8.9472h-0.559104v1.11872h-1.11872c-0.2048 2.163712-0.863232 2.3168-1.118208 4.473344l8.388608 0.559104q0.279552 0.560128 0.559616 1.11872l3.355136 0.559104v0.559104h9.50784l0.559104 1.11872 2.796032 0.559104v0.559104h9.509888v0.559104h1.67424c0.18944 0.373248 0.37376 0.745984 0.55808 1.11872h1.12128V336.384h9.50784v0.559104h2.23744c0.18432 0.372736 0.37376 0.745984 0.55808 1.11872l2.79552 0.559104v0.559104h9.50784v0.559104h1.12128c0.18432 0.373248 0.36864 0.745984 0.55808 1.11872h1.67424v0.559104h10.07104v0.559104l3.3536 1.11872v0.559616h8.94976v0.559104h2.23744c0.18432 0.372736 0.36864 0.745984 0.55808 1.11872l5.03296 0.559104v0.559104h7.82848v0.559104h1.12128c0.18432 0.372736 0.36864 0.745984 0.55808 1.11872h1.67936v0.559104h10.06592v0.559104h1.11616c0.18944 0.372736 0.37376 0.745984 0.55808 1.11872h1.12128v0.559616h9.50784v0.559104h2.23744c0.18432 0.372736 0.37376 0.745472 0.55808 1.118208h1.11616v0.559616l11.74528 0.559104c0.18944 0.372736 0.37376 0.745472 0.55808 1.118208q1.40544 0.279552 2.80064 0.559616v0.559104h9.50784v0.559104q1.67424 0.559104 3.3536 1.118208v0.559616h9.50784v0.559104h1.67936v0.559104l2.23232 0.559104v0.559616l11.1872 0.559104v0.559104h1.12128c0.18432 0.372736 0.36864 0.745472 0.55808 1.118208h1.67424v0.559616h10.07104v0.559104h1.11616c0.18432 0.372736 0.37376 0.745472 0.55808 1.118208h1.12128v0.559616h10.06592v0.559104h1.67936v0.559104c1.16224 0.81152 1.32096 0.960512 3.3536 1.118208-0.384-1.6384-0.62464-1.830912-2.23744-2.236416-0.39424-3.154944-1.37216-1.800704-2.23744-3.355648-0.18432-1.118208-0.37376-2.236928-0.55808-3.355136-1.33632-0.339456-1.03936-0.177664-1.67936-1.11872h-0.55808v-3.355136h-0.55808c-0.64-0.636928-0.00512-0.22272-1.12128-0.559104l-1.67424-6.15168c-0.5632-0.372736-1.12128-0.745472-1.67936-1.118208v-4.473856h-0.55808c-0.64-0.636416-0.00512-0.22272-1.12128-0.559104-0.1792-1.0496-0.55808-1.118208-0.55808-1.118208V334.70464c-0.37376-0.186368-0.74752-0.372736-1.11616-0.559104v-1.118208h-0.5632v-1.11872h-0.55808c-0.95232-2.197504 0.31232-5.1712-0.55808-7.828992h-0.55808v-1.677312l-1.12128-0.559616v-2.236416h-0.55808v-40.26368h0.55808v-2.796032h1.12128v-1.677824h0.55808v-6.710784c0.40448-1.241088 1.32608-2.358272 1.67936-3.91424h1.11616a34.087936 34.087936 0 0 1 0.55808-6.710784c0.55808-0.186368 1.12128-0.372736 1.67936-0.559104v-4.473856c0.55808-0.372736 1.11616-0.745472 1.67936-1.118208 0.18432-0.745472 0.36864-1.491456 0.55808-2.236928h0.55808v-3.355136c0.74752-0.372736 1.48992-0.745984 2.23744-1.11872v-3.355136l0.55808-0.559104 1.67936-0.559616c0.3328-3.785216 2.35008-3.761664 2.79552-7.2704h1.12128c0.18432-0.559616 0.36864-1.11872 0.55808-1.677824h0.55808c1.00352-2.371584-0.8448-2.554368 2.23744-3.355136 0.18432-0.745984 0.37376-1.491456 0.55808-2.236928h1.12128c1.14176-2.636288 3.33312-4.76928 3.91168-7.2704h1.67936c0.22528-1.014784 0.45568-2.233344 1.11616-2.796032 0.5632-0.186368 1.12128-0.372736 1.67936-0.559104V213.9136l1.12128-0.559104c1.22368-1.290752 2.816-2.545664 3.3536-4.473856h1.11616c0.68096-1.189888 1.25952-1.217024 1.67936-2.796032h1.67936c0.60416-2.192896 1.62304-1.848832 2.79552-3.355136h0.55808v-1.11872l2.79552-0.559104c0.18944-0.559104 0.37376-1.118208 0.5632-1.677824h-8.94976v-0.559104c-1.12128-0.372736-2.23744-0.745472-3.35872-1.118208v-0.559104h-8.94464v-0.559616h-2.23744v-0.558592l-2.23744-0.559104v-0.559104h-2.23744v-0.559616h-8.94976v-0.559104h-1.11616c-0.18944-0.372736-0.37376-0.745472-0.55808-1.118208h-1.67936v-0.559104h-10.06592v-0.559616c-1.12128-0.372736-2.23744-0.745472-3.35872-1.118208v-0.559104h-8.94464v-0.559104h-2.23744c-0.18944-0.373248-0.37376-0.745984-0.55808-1.11872h-1.12128v-0.559104h-2.23744v-0.559104h-9.50784c-0.18432-0.372736-0.37376-0.745984-0.55808-1.11872l-2.79552-0.559104v-0.559104h-10.06592v-0.559104h-1.12128c-0.18432-0.373248-0.37376-0.745984-0.55808-1.11872h-1.11616v-0.559104h-9.50784v-0.559104h-2.23744c-0.18944-0.372736-0.37376-0.745984-0.5632-1.11872h-1.11616v-0.559104h-3.9168v-0.559104h-7.2704v-0.559104h-1.11616c-0.18432-0.372736-0.37376-0.745984-0.55808-1.11872h-2.23744v-0.559104h-9.50784v-0.559104c-1.12128-0.372736-2.23744-0.745984-3.35872-1.11872v-0.559104h-9.50272v-0.559104h-1.67936v-0.559104c-0.74752-0.186368-1.48992-0.373248-2.23744-0.559616v-0.559104l-11.1872-0.559104v-0.559104h-1.11616c-0.18944-0.372736-0.37376-0.745984-0.55808-1.11872h-1.67936v-0.559104h-10.06592v-0.559104h-1.12128c-0.18432-0.372736-0.36864-0.745984-0.55808-1.11872h-1.11616v-0.559104h-10.07104v-0.559104h-1.67424c-0.18944-0.372736-0.37376-0.745472-0.55808-1.118208h-1.12128v-0.559616l-11.74528-0.559104c-0.18432-0.372736-0.37376-0.745472-0.55808-1.118208h-1.11616V163.584c-2.18624-0.965632-6.47168-0.534016-9.50784-0.559104-0.8448 2.265088-0.5888 6.367232-0.5632 9.506816h-0.55808v2.236928zM780.288 219.506176v1.11872l-5.59104 1.118208-1.12128 1.677824h-2.79552q-0.83712 1.118208-1.67936 2.236928l-2.79552 0.559104-1.67424 2.236928h-2.23744c-0.18944 0.559104-0.37376 1.118208-0.5632 1.677824-0.61952 0.697344-1.35168 0.022016-2.23232 0.559104q-0.8448 1.118208-1.67936 2.236928h-1.67936q-0.5632 1.118208-1.11616 2.236416c-0.5632 0.18688-1.12128 0.373248-1.67936 0.559616-0.18432 0.559104-0.37376 1.118208-0.55808 1.677312-1.16736 1.418752-2.04288-0.038912-2.79552 2.796032h-1.12128q-0.83712 1.398784-1.67936 2.796544h-1.11616v0.559104h-0.55808c-1.1008 1.29792 0.60416 1.040896-1.67936 1.677312-0.42496 2.310144-1.85856 2.8416-2.79552 4.473856-0.40448 0.702976-0.48128 2.42176-1.12128 2.796032h-1.11616c-0.3584 2.003968-1.5616 2.497536-2.23744 3.914752-0.18432 0.93184-0.37376 1.864192-0.55808 2.796032-0.55808 0.186368-1.12128 0.372736-1.67936 0.559104a21.952512 21.952512 0 0 0-0.55808 4.473856h-1.67936q-0.5632 3.075072-1.11616 6.151168c-0.55808 0.372736-1.12128 0.745984-1.67936 1.11872-0.95232 1.987584 0.66048 4.856832-1.11616 6.710272-0.64 0.636928-0.00512 0.22272-1.12128 0.559616q-0.27648 5.870592-0.55808 11.743232h-0.55808v1.11872h-0.5632q-0.27648 6.150144-0.55808 12.302336h0.55808v2.796544h0.5632v1.677312h0.55808v5.03296h0.55808v6.15168c0.55808 0.372736 1.12128 0.745472 1.67936 1.118208q0.27648 3.075072 0.55808 6.151168c0.55808 0.372736 1.12128 0.745984 1.67936 1.11872v1.119232h0.55808v3.914752s0.36352 0.067584 0.55808 1.118208c0.55808 0.186368 1.12128 0.372736 1.67936 0.559104 0.18432 1.491456 0.37376 2.982912 0.55808 4.473856h1.67936c0.18432 1.118208 0.37376 2.236928 0.55808 3.355648l1.12128 0.559104v1.118208h0.55808c0.51712 0.768 0.37888 0.985088 0.55808 2.236928 2.9696 0.864768 1.21856 0.736256 2.23744 2.796032h0.55808v1.11616c0.55808 0.372736 1.12128 0.745472 1.67936 1.118208v1.118208h0.55808c0.18432 0.373248 0.37376 0.745984 0.55808 1.11872h1.12128c0.37888 1.6384 0.61952 1.830912 2.23744 2.236928 0.18432 0.745472 0.36864 1.491456 0.55808 2.236928 0.55808 0.186368 1.11616 0.372736 1.67936 0.559104v1.118208c0.36864 0.186368 0.7424 0.373248 1.11616 0.559616v0.559104c0.55808 0.186368 1.12128 0.372736 1.67936 0.559104 0.18432 0.559104 0.37376 1.11872 0.55808 1.677824h1.67936v1.118208c0.58368 0.310272 0.93696 1.014272 1.11616 1.11872h1.67936c0.18432 0.559104 0.37376 1.118208 0.55808 1.677312 0.57344 0.672256 2.1504 0.680448 2.79552 1.11872 0.55808 0.745472 1.12128 1.490944 1.67936 2.236416h2.23744c0.96256 3.3792 1.0496 1.00096 3.3536 2.236928 0.55808 0.745984 1.12128 1.491456 1.67936 2.236928 1.36192 0.682496 2.79552-0.142848 3.9168 0.559104a297.73312 297.73312 0 0 0 1.11616 1.677824h1.11616v0.559104h3.35872q0.83712 1.118208 1.67936 2.236928h5.59104v0.559104h1.11616l1.12128 1.677824h8.94464v0.559104h2.23744v0.559616h1.12128v0.559104h1.67936v0.559104h5.03296v0.559104l10.06592-1.118208v-0.559104h1.11616v-0.559616h2.23744v-0.559104h8.94976s0.1024-0.376832 1.11616-0.559104v-1.11872q3.64032-0.559104 7.2704-1.118208c0.18944-0.559104 0.37376-1.11872 0.55808-1.677824l5.59616-0.559104c0.40448-1.544704 0.1536-1.250816 1.67424-1.677824v-0.557568h2.80064q0.55296-1.118208 1.11616-2.236928h2.79552l0.55808-0.559104c0.18944-0.559104 0.37376-1.118208 0.5632-1.677824h2.23744c0.52736-1.007104 0.77312-0.880128 1.11616-2.236416 1.92512-0.3584 2.64192-1.273344 3.9168-2.236928v-0.559104c1.78688-1.092096 1.98656 0.903168 2.79552-2.236928h1.67936q0.55296-1.119232 1.11616-2.236928h1.11616l1.12128-1.11872v-1.118208c0.55808-0.186368 1.11616-0.372736 1.67936-0.559104 0.18432-0.559104 0.36864-1.11872 0.55808-1.677824 0.74752-0.372736 1.48992-0.745472 2.23744-1.118208v-1.677824h1.11616a4.28288 4.28288 0 0 1 1.12128-1.11872c1.14688-2.307072-0.91648-3.030528 2.23744-3.91424 0.18432-0.745472 0.36864-1.491456 0.55808-2.236928h1.67936c0.29184-2.094592 0.17408-2.809344 0.55808-5.03296h2.23744v-3.355136c1.00352-0.528384 0.88064-0.774656 2.23744-1.11872a22.228992 22.228992 0 0 1 0.55808-5.03296h1.67936v-5.03296h1.67424v-0.559104c1.19808-1.37216-0.09216-4.068864 0.55808-6.151168h0.5632c0.18432-0.93184 0.37376-1.864192 0.55808-2.796032 0.55808-0.186368 1.11616-0.373248 1.67936-0.559616v-32.99328h-0.5632v-1.11872h-0.55808v-1.118208c-0.37376-0.186368-0.7424-0.373248-1.11616-0.559616q-0.28416-3.6352-0.5632-7.2704l-1.67424-1.11872V271.5136h-0.55808v-3.914752q-1.12128-0.559104-2.23744-1.118208v-3.914752q-1.12128-0.559104-2.23744-1.118208v-3.355648q-1.12128-0.559104-2.23744-1.118208-0.28416-1.39776-0.55808-2.796032c-0.5632-0.372736-1.12128-0.745472-1.67936-1.11872q-0.28416-1.39776-0.55808-2.796032c-1.80224-0.412672-2.03776-0.758784-2.23744-2.796032h-1.67936v-1.118208l-2.79552-3.355136-1.12128-0.559616v-1.118208h-0.55808c-0.37376-0.559104-0.7424-1.11872-1.11616-1.677824-1.24928-1.249792-2.76992-1.357312-3.35872-3.355136-2.29888-0.526336-2.44224-1.599488-3.91168-2.796032v-0.559104h-1.67936c-1.81248-1.197056 0.6656-1.920512-3.3536-2.236928v-1.11872c-0.58368-0.275456-1.024-1.068544-1.12128-1.118208-2.2784-1.161216-2.49344 1.053696-3.3536-2.236928l-3.9168-0.559104c-0.40448-1.544704-0.1536-1.251328-1.67936-1.677824v-0.559104h-2.79552l-1.67424-2.236928h-4.47488c-0.55808-0.745472-1.12128-1.491456-1.67936-2.236928h-5.03296v-0.559104h-1.67936v-0.559104h-1.11616c-0.18944-0.372736-0.37376-0.745984-0.55808-1.11872h-1.67936v-0.559104h-10.624l-1.12128-1.677824h-1.67936V213.9136c-1.80224-0.590336-10.60864 0.64512-11.74016 1.11872v0.559104h-1.12128v0.559104h-9.50784v0.559104h-1.67424l-1.12128 1.677824z m-128.62976 182.863872q-0.5632 1.677312-1.11616 3.355136l-1.12128 0.559104v2.236928c-0.74752 0.559104-1.48992 1.11872-2.23744 1.677824v2.796032h-0.55808v0.559104l-1.67936 0.559616c-0.18432 1.118208-0.37376 2.236928-0.55808 3.355136-0.74752 0.559104-1.48992 1.118208-2.23744 1.677824v1.677312c-0.55808 0.372736-1.11616 0.745984-1.67936 1.11872-1.42336 2.225664 0.51712 3.60192-2.79552 4.473344-0.07168 1.641984-0.15872 3.644928-1.11616 4.473856-0.55808 0.186368-1.12128 0.372736-1.67936 0.559104v1.677824h-0.55808v1.118208l-1.12128 0.559616c-1.19296 1.909248 0.62976 2.543104-2.23744 3.355136q-0.55296 2.236416-1.11616 4.473856c-0.55808 0.186368-1.11616 0.372736-1.67936 0.559104-0.18432 1.118208-0.37376 2.236928-0.55808 3.355136-0.74752 0.559104-1.48992 1.11872-2.23744 1.677824-0.18432 0.745472-0.37376 1.491456-0.55808 2.236928l-1.12128 0.559104v1.118208h-0.55808c-1.00352 2.120704 0.49664 2.58816-2.23744 3.355648-0.20992 1.232896-0.52224 1.009664-0.55808 1.118208v2.796032c-0.74752 0.372736-1.48992 0.745984-2.23744 1.11872-0.18432 1.118208-0.37376 2.236928-0.55808 3.355136-0.55808 0.372736-1.12128 0.745472-1.67936 1.118208-0.18432 0.745984-0.37376 1.491456-0.55808 2.236928-0.55808 0.372736-1.11616 0.745984-1.67936 1.11872-0.18432 1.118208-0.37376 2.236928-0.55808 3.355136-0.74752 0.372736-1.48992 0.745472-2.23744 1.11872v2.796032c-0.01536 0.0512-0.32256-0.07424-0.55808 1.118208h-1.67936c-0.3328 3.785216-2.35008 3.761664-2.79552 7.2704-1.54624 0.40448-1.24928 0.15616-1.67936 1.677824h-0.55808v2.796032q-1.1136 0.559104-2.23744 1.118208v2.796032L598.528 494.6432v1.677824h-0.55808c-0.18944 0.559104-0.37376 1.118208-0.55808 1.677312l-1.12128 0.559616v2.236928q-1.1136 0.559104-2.23744 1.118208v2.796032c-0.01536 0.0512-0.3328-0.081408-0.55808 1.118208-0.55808 0.18688-1.11616 0.373248-1.67936 0.559616a16.407552 16.407552 0 0 1-0.55808 3.91424c-0.55808 0.186368-1.11616 0.372736-1.67936 0.559104a22.715904 22.715904 0 0 0-0.55808 4.475392h-1.11616v1.67424h1.67424v0.5632h7.8336v0.55808h1.67424l1.12128 1.67424q4.46976 0.28416 8.94464 0.5632l1.12128 1.67424h1.67936v0.5632h5.59104v0.55808h1.11616l1.12128 1.67424h5.59104v0.5632h1.12128c0.36864 0.55808 0.7424 1.11616 1.11616 1.67424q3.07968 0.28416 6.15424 0.5632c0.36864 0.55808 0.7424 1.11616 1.11616 1.67424h1.12128v0.55808h4.46976c0.37376 0.5632 0.74752 1.12128 1.12128 1.67936h1.11616v0.55808h4.47488c0.55808 0.74752 1.12128 1.49504 1.67936 2.23744 1.67936 0.18944 3.3536 0.37376 5.03296 0.55808v1.12128c0.74752 0.18432 1.48992 0.37376 2.23744 0.55808v0.55808h3.3536v0.5632c0.64 0.63488 0.22528 0 0.55808 1.11616 1.23904 0.19456 1.05472 0.5376 1.12128 0.55808h3.3536q0.8448 1.12128 1.67936 2.23744c1.35168 0.68608 2.80064-0.14336 3.9168 0.55808 0.36864 0.5632 0.7424 1.12128 1.11616 1.67936h1.12128v0.55808h2.79552q0.83712 1.12128 1.67424 2.23744h3.35872v0.55808c0.63488 0.64 0.22016 0.00512 0.55808 1.12128 1.48992 0.37376 2.98496 0.7424 4.47488 1.11616 0.95232 3.21024 1.60768 1.02912 3.91168 2.23744 0.5632 0.74752 1.12128 1.48992 1.67936 2.23744h2.79552c0.37376 0.74752 0.74752 1.48992 1.12128 2.23744 1.11616 0.18432 2.23744 0.37376 3.3536 0.55808 0.40448 1.54624 0.15872 1.24928 1.67936 1.67936v0.55808h2.23744v1.11616a4.942848 4.942848 0 0 1 1.11616 1.12128h2.23744c0.55808 0.74752 1.12128 1.48992 1.67936 2.23744h1.67936q0.83712 1.1136 1.67424 2.23744c0.93184 0.18432 1.86368 0.37376 2.79552 0.55808v0.55808c1.56672 1.36704 0.3584 1.43872 3.35872 1.67936v1.11616c0.63488 0.31232 0.91648 1.00864 1.11616 1.12128h1.67936q0.83712 1.1136 1.67936 2.23744c0.63488 0.4352 2.39616 0.45056 2.79552 1.11616v1.11616c0.93184 0.18944 1.86368 0.37376 2.79552 0.5632v1.11616c0.58368 0.31232 0.93696 1.01376 1.11616 1.12128h1.67936c0.18432 0.55808 0.37376 1.11616 0.55808 1.67424 0.55296 0.64512 2.2528 0.71168 2.79552 1.12128q0.5632 1.1136 1.12128 2.23744h1.67936v1.11616c0.75776 0.384 0.72192 0.8448 1.11616 1.11616h1.12128v0.5632c0.82432 0.75776 0.75776 0.27648 1.11616 1.67424 0.74752 0.18944 1.48992 0.37376 2.23744 0.5632 0.29696-1.62304 0.91648-2.2528 1.67936-3.35872h0.55808c1.19296-2.25792-0.96768-3.02592 2.23744-3.91168 0.37376-1.3056 0.7424-2.6112 1.11616-3.9168 0.55808-0.37376 1.12128-0.74752 1.67936-1.11616v-1.67936c0.74752-0.55808 1.48992-1.11616 2.23744-1.67936 1.21344-2.2528-0.98304-3.00544 2.23744-3.91168 0.20992-1.23392 0.52224-1.00864 0.55808-1.12128v-2.79552c0.74752-0.37376 1.48992-0.7424 2.23744-1.11616 0.18432-0.93184 0.37376-1.86368 0.55808-2.79552 0.37376-0.18944 0.74752-0.37376 1.12128-0.5632q0.55296-1.67424 1.11616-3.3536c0.55808-0.37376 1.12128-0.7424 1.67936-1.11616v-2.23744h0.55808v-1.12128c0.74752-0.36864 1.48992-0.7424 2.23744-1.11616v-2.79552c0.01536-0.0512 0.32256 0.07168 0.55808-1.12128h1.12128q1.1136-2.23488 2.23744-4.46976h0.55808c0.7168-1.52576-0.27648-1.5104 1.11616-2.80064v-0.55808h1.12128c0.20992-1.2288 0.52224-1.00864 0.55808-1.11616v-2.79552c0.74752-0.37376 1.48992-0.74752 2.23744-1.12128 0.18432-1.11616 0.37376-2.23744 0.55808-3.3536 0.74752-0.55808 1.48992-1.12128 2.23744-1.67936v-1.67424c0.55808-0.37376 1.11616-0.74752 1.67936-1.12128v-1.11616h0.55808v-2.23744c0.74752-0.37376 1.48992-0.74752 2.23744-1.12128v-2.79552c0.01536-0.04608 0.32256 0.0768 0.55808-1.11616h1.12128a4.3264 4.3264 0 0 1 1.11616-1.12128v-2.23744c0.55808-0.36864 1.11616-0.7424 1.67936-1.11616v-1.11616h0.55808v-1.679872c0.55808-0.186368 1.11616-0.372736 1.67936-0.559104q0.55296-2.236416 1.11616-4.473856c2.95936-0.928768 0.70656-0.590848 1.67936-2.796032h0.55808v-1.118208c0.74752-0.559104 1.48992-1.11872 2.23744-1.677824v-1.677312c0.37376-0.186368 0.74752-0.373248 1.11616-0.559616a12.475904 12.475904 0 0 0 1.67936-4.473344l1.67936-0.559616a16.407552 16.407552 0 0 1 0.55808-3.91424h1.67936q0.55296-2.236416 1.11616-4.473856c0.55808-0.186368 1.12128-0.372736 1.67936-0.559104 0.1536-1.5872 0.36864-2.4064 1.11616-3.355136l1.12128-0.559616c0.18432-1.118208 0.37376-2.236928 0.55808-3.355136 1.54624-0.40448 1.24928-0.1536 1.67936-1.677824h0.55808v-2.796032l2.23744-0.559104c0.05632-2.720256 0.53248-3.03872 1.67936-4.473856h0.55808c0.18432-0.745472 0.37376-1.490944 0.55808-2.236928 0.37376-0.186368 0.74752-0.372736 1.11616-0.559104 0.75264-1.2288 0.93184-2.852864 1.12128-4.473344h1.67936a25.526272 25.526272 0 0 1 1.11616-4.473856c0.55808-0.186368 1.12128-0.372736 1.67936-0.559104 0.4864-2.634752 1.7152-3.717632 2.79552-5.592576v-1.118208c0.55808-0.372736 1.11616-0.745472 1.67936-1.11872q0.27648-1.677312 0.55808-3.355136 1.1136-0.559104 2.23744-1.118208v-2.796032c0.01536-0.0512 0.32256 0.072704 0.55808-1.11872 0.55808-0.186368 1.11616-0.372736 1.67936-0.559104 0.34816-2.005504 1.34144-3.372544 2.23744-5.03296h0.55808v-1.677824l1.67424-0.559104c0.31232-2.114048 0.77824-3.9296 2.80064-4.473856 0.18432-0.559104 0.36864-1.118208 0.55808-1.677312h-1.12128v0.559104c-0.63488 0.636928-0.22016 0-0.55808 1.118208-4.85888 0.0512-11.1104-0.6144-15.09888 0.559616v0.559104h-4.47488c-1.39776 0.400384-4.36736 1.77664-6.71232 1.118208v-0.559104h-3.91168v-0.559104h-3.35872v-0.559104h-2.79552v-0.559616h-12.86144v-0.559104h-1.12128c-0.18432-0.372736-0.36864-0.745472-0.55808-1.118208h-1.11616v-0.559104h-8.94976v-0.559616h-2.79552c-0.18944-0.372736-0.37376-0.745472-0.55808-1.118208l-3.35872-0.559104v-0.559616h-9.50784c-0.18432-0.372736-0.36864-0.745472-0.55808-1.118208h-1.11616v-0.559104h-1.12128v-0.559104H743.936v-0.559616c-1.11616-0.372736-2.23744-0.745472-3.3536-1.118208v-0.559104h-8.94976v-0.559616l-3.3536-0.559104c-0.18944-0.372736-0.37376-0.745472-0.5632-1.118208h-2.79552v-0.559104h-8.94464v-0.559616h-1.12128c-0.18432-0.372736-0.37376-0.745472-0.55808-1.118208h-1.67936v-0.559104h-10.06592v-0.559616h-1.11616c-0.18944-0.372736-0.37376-0.745472-0.5632-1.118208h-1.67424v-0.559104h-8.94976v-0.559104h-2.23744c-0.18432-0.372736-0.37376-0.745984-0.55808-1.11872h-1.12128v-0.559104h-3.91168v-0.559104h-7.8336c-0.18432-0.372736-0.36864-0.745984-0.55808-1.11872l-2.79552-0.561664v-0.559104h-10.06592c-0.18432-0.372736-0.37376-0.745984-0.55808-1.11872h-1.12128v-0.559104h-1.11616v-0.559104h-6.71232zM399.990784 573.4912c-3.0208-0.03584-4.05504 0.64512-6.15168 1.11616v1.12128q-2.796544 0.55296-5.592576 1.11616c-0.372736 0.55808-0.745984 1.12128-1.11872 1.67936h-3.355648s-0.02304 0.34816-1.118208 0.55808c-0.186368 0.55808-0.373248 1.11616-0.559616 1.67936-2.001408-0.03584-3.521024 0.128-4.473856 1.11616-0.636928 0.64-0.22272 0.00512-0.559104 1.12128-1.233408 0.2048-1.024 0.52736-1.11872 0.55808H373.1456q-0.838656 1.1136-1.677824 2.23744h-2.796032c-0.038912 0.01024 0.05888 0.32768-1.11872 0.55808-0.186368 0.55808-0.372736 1.11616-0.559104 1.67936-2.720256-0.01024-3.049984 0.56832-4.473856 1.67424v0.55808c-2.2016 1.43872-3.616256-0.52224-4.474368 2.80064h-2.796032c-0.528384 1.00352-0.774656 0.88064-1.11872 2.23232-2.338304 0.1024-3.2256 0.58368-4.473856 1.67936l-0.559616 1.12128h-1.677824c-0.186368 0.36864-0.372736 0.7424-0.559104 1.11616-1.039872 0.90624-2.2912 1.32608-3.914752 1.67936l-0.559104 1.67424c-0.932352 0.18944-1.864704 0.37376-2.796544 0.5632v1.11616c-0.426496 0.68096-2.13504 0.6656-2.796544 1.11616q-0.838656 1.12128-1.677312 2.23744c-1.858048 1.12128-1.89952-0.93184-2.796544 2.23744-3.072 0.37376-2.517504 2.06848-5.592576 2.79552-0.38912 1.35168-0.521728 1.73056-1.677824 2.23744h-1.11872c-0.372736 0.74752-0.745472 1.48992-1.118208 2.23744h-1.677824c-0.186368 0.55808-0.372736 1.12128-0.559104 1.67936l-2.796544 1.67424v1.12128c-0.559104 0.18432-1.11872 0.37376-1.677824 0.55808q-1.956864 2.23488-3.914752 4.47488h-1.11872v0.55808c-0.372736 0.18944-0.745472 0.37376-1.118208 0.55808v1.12128h-1.11872c-1.520128 2.7648-4.000768 5.08416-6.15168 7.2704-0.559104 0.36864-1.11872 0.7424-1.677824 1.11616v1.12128H300.4416v0.55808h-1.11872c-0.622592 0.56832-0.39424 1.12128-0.559104 2.23744h-1.677824c-0.201216 1.00864-0.470016 2.23744-1.11872 2.79552-0.559104 0.18432-1.11872 0.37376-1.677824 0.55808v1.67936l-2.236928 1.67424c-1.097728 1.80736 0.9088 1.96608-2.236928 2.79552-0.365056 1.95072-1.293824 2.60608-2.236928 3.9168h-0.559616c-1.224192 2.22208 1.140224 2.47808-2.236928 3.3536l-0.559104 2.79552c-0.559616 0.18944-1.11872 0.37376-1.677824 0.5632a8.290304 8.290304 0 0 1-0.559616 3.3536c-0.559104 0.18432-1.118208 0.37376-1.677312 0.55808l-0.559616 3.35872-2.236928 1.67424v2.23744h-0.559104v1.12128c-0.559104 0.36864-1.11872 0.7424-1.677824 1.11616-0.186368 1.11616-0.372736 2.23744-0.559616 3.3536h-0.559104v1.12128c-0.372736 0.18432-0.745472 0.37376-1.118208 0.55808-0.722432 1.2032-0.177152 3.45088-1.11872 4.47488-0.63744 0.63488 0 0.22016-1.11872 0.55808-0.339456 2.04288-0.753152 5.1456-1.677824 6.71232-0.372736 0.18432-0.745472 0.36864-1.118208 0.55808v5.03296h-0.559616v1.11616l-1.677312 1.12128v6.7072h-0.559616v1.12128h-0.559104v1.11616c-0.372736 0.18944-0.745984 0.37376-1.11872 0.55808l-0.559104 6.71232h505.01376q-0.27648-3.35616-0.55808-6.71232h-1.12128c-0.18432-0.93184-0.37376-1.86368-0.55808-2.79552h-0.55808v-6.7072c-1.54624-0.40448-1.2544-0.15872-1.67936-1.67936-1.14688-1.3056 0.29184-3.77344-0.55808-5.59104-0.55808-0.37376-1.12128-0.74752-1.67936-1.12128-1.04448-1.62816-1.11104-3.4816-1.11616-6.14912-0.55808-0.18432-1.12128-0.37376-1.67936-0.55808l-0.55808-0.55808v-3.9168c-0.55808-0.37376-1.12128-0.74752-1.67936-1.11616v-1.12128h-0.55808v-2.79552c-0.55808-0.37376-1.12128-0.74752-1.67936-1.11616-0.18432-0.93184-0.37376-1.8688-0.55808-2.80064-0.55808-0.36864-1.11616-0.7424-1.67936-1.11616-0.75776-1.19296-0.93696-2.88256-1.11616-4.47488h-1.67936q-0.5632-2.23488-1.11616-4.47488c-2.6624-0.85504-0.5888-0.46592-1.67936-2.23232-0.74752-0.5632-1.48992-1.12128-2.23744-1.67936-1.152-1.98656 0.86016-2.41664-2.23744-3.3536v-1.67936c-1.00864-0.52736-0.88064-0.77312-2.23744-1.12128-0.60416-2.90816-2.67264-3.8144-3.3536-6.7072-2.80064-0.77312-1.31072-2.00704-3.9168-2.79552-0.18432-0.74752-0.37376-1.49504-0.55808-2.23744-2.79552-0.77312-1.31072-2.00704-3.9168-2.79552v-1.12128q-4.19328-3.90912-8.38656-7.82848c-1.2032-1.19808-1.37216-2.25792-3.3536-2.79552v-1.11616c-1.82272-0.9472-3.03104-1.9968-3.9168-3.9168h-1.67936v-1.11616q-1.39776-0.8448-2.79552-1.67936c-0.18432-0.55808-0.37376-1.12128-0.55808-1.67936h-1.67936c-0.18432-0.37376-0.37376-0.7424-0.55808-1.11616a6.783488 6.783488 0 0 0-3.3536-1.67936c-0.41472-1.79712-0.76288-2.03776-2.80064-2.23744v-1.11616c-0.57856-0.3072-0.9472-1.024-1.11616-1.12128h-1.67936q-0.83712-1.1136-1.67424-2.23744c-0.74752-0.18432-1.49504-0.36864-2.23744-0.55808q-0.8448-1.1136-1.67936-2.23744h-1.67936v-0.55808c-1.37728-1.03424-1.47968-1.49504-3.91168-1.67936-0.50688-2.06848-1.80736-2.42688-3.9168-2.79552-0.40448-1.54112-0.1536-1.24928-1.67936-1.67424v-0.5632h-2.23744c-1.1008-3.46624-1.81248-0.99328-3.91168-2.23232q-0.5632-1.12128-1.12128-2.23744h-2.79552q-0.83712-1.12128-1.67936-2.23744-1.67424-0.28416-3.3536-0.55808-0.83712-1.12128-1.67936-2.23744h-2.79552q-0.83712-1.12128-1.67424-2.23744h-3.35872c-0.55808-0.74752-1.11616-1.48992-1.67936-2.23744-1.04448-0.67072-2.70848 0.16384-3.91168-0.55808v-0.5632c-0.64-0.63488-0.22528 0-0.55808-1.11616a25.685504 25.685504 0 0 0-5.03296-0.55808c-0.40448-1.54624-0.15872-1.2544-1.67936-1.67936v-0.55808h-3.35872v-0.55808h-1.11616c-0.37376-0.5632-0.74752-1.12128-1.11616-1.67936-1.67936-0.18432-3.35872-0.37376-5.03808-0.55808-0.36864-0.55808-0.7424-1.12128-1.11616-1.67936h-1.11616v-0.55808h-4.47488c-0.5632-0.74752-1.12128-1.48992-1.67936-2.23744h-5.03296s-0.09216-0.36864-1.12128-0.55808v-1.12128c-1.3056-0.21504-3.9168-0.768-5.03296-1.11616h-2.79552c-0.37376-0.55808-0.7424-1.12128-1.11616-1.67936h-1.12128v-0.55808h-6.7072c-0.37376-0.55808-0.74752-1.11616-1.12128-1.67936h-1.11616v-0.55808h-7.2704v-0.55808h-1.12128c-0.18432-0.37376-0.37376-0.74752-0.55808-1.12128h-1.12128v-0.55808h-6.14912v-0.55808h-3.9168v-0.55808c-0.7424-0.18944-1.48992-0.37376-2.23744-0.55808v-0.5632h-1.67424v-0.55808h-11.74528v-0.55808c-0.74752-0.18432-1.48992-0.37376-2.23744-0.55808v-0.5632h-1.67936v-0.55808h-19.57376c-11.84256-3.32288-33.458176-3.3536-45.2992 0h-19.574272v0.55808h-1.677824v0.5632c-0.745472 0.18432-1.491456 0.37376-2.236928 0.55808v0.55808H457.59488v0.55808h-2.23744l-0.559104 1.12128h-1.118208v0.55808h-3.915264v0.55808h-6.15168v0.55808h-1.11872l-0.559104 1.12128h-1.677824v0.55808h-6.710784v0.55808h-1.11872l-0.559104 1.12128h-1.11872v0.55808h-6.15168v0.55808h-1.11872c-0.372736 0.55808-0.745472 1.12128-1.11872 1.67936q-3.354624 0.27648-6.710784 0.55808v0.55808h-1.11872c-0.372736 0.5632-0.745472 1.12128-1.11872 1.67936h-5.03296v0.55808h-1.11872c-0.372736 0.55808-0.745472 1.12128-1.11872 1.67936-2.117632 1.01376-3.853312-0.6144-5.592576 1.11616-0.636416 0.64-0.22272 0.00512-0.559104 1.12128zM67.23072 757.47328c1.035776 11.4176 0.559104 25.12896 0.559104 37.46816v124.70272c0 12.33408 0.48896 26.05568-0.559104 37.46816h891.46368c-1.03936-11.4176-0.5632-25.12896-0.5632-37.46816v-124.70272c0-12.33408-0.4864-26.05568 0.5632-37.46816H67.23072z" p-id="14089" fill="#e6e6e6"></path></svg>