<?xml version="1.0" standalone="no"?><!DOCTYPE svg PUBLIC "-//W3C//DTD SVG 1.1//EN" "http://www.w3.org/Graphics/SVG/1.1/DTD/svg11.dtd"><svg t="1733660360299" class="icon" viewBox="0 0 1024 1024" version="1.1" xmlns="http://www.w3.org/2000/svg" p-id="15141" xmlns:xlink="http://www.w3.org/1999/xlink" width="200" height="200"><path d="M313.6 537.6c-25.6 0-44.8 19.2-44.8 44.8 0 25.6 19.2 44.8 44.8 44.8 32 0 51.2-25.6 44.8-44.8 6.4-25.6-12.8-44.8-44.8-44.8zM352 435.2h300.8c25.6 0 51.2-19.2 51.2-38.4l-6.4-32-19.2-57.6c0-6.4-6.4-12.8-12.8-19.2H339.2l-38.4 108.8c0 19.2 32 38.4 51.2 38.4z m217.6 102.4H428.8c-6.4 0-12.8 6.4-12.8 12.8v38.4c0 6.4 6.4 12.8 12.8 12.8h134.4c6.4 0 12.8-6.4 12.8-12.8v-38.4c0-6.4-6.4-12.8-6.4-12.8z m115.2 0c-25.6 0-44.8 19.2-44.8 44.8 0 25.6 19.2 44.8 44.8 44.8 25.6 0 44.8-25.6 44.8-44.8 0-25.6-25.6-44.8-44.8-44.8z" p-id="15142" fill="#e6e6e6"></path><path d="M512 0C230.4 0 0 230.4 0 512s230.4 512 512 512 512-230.4 512-512S793.6 0 512 0z m332.8 416c0 12.8-6.4 19.2-19.2 19.2l-25.6 6.4c6.4 12.8 12.8 32 12.8 51.2l6.4 102.4v134.4c0 19.2-12.8 32-32 32h-38.4c-19.2 0-32-12.8-32-32v-38.4H313.6v38.4c0 19.2-12.8 32-32 32h-44.8c-19.2 0-32-12.8-32-32V595.2l6.4-102.4c0-19.2 6.4-38.4 12.8-51.2l-25.6-6.4c-12.8 0-19.2-12.8-19.2-19.2v-12.8c0-12.8 12.8-19.2 19.2-19.2h70.4l25.6-83.2s38.4-70.4 83.2-70.4H640c38.4 0 76.8 19.2 83.2 70.4l25.6 83.2h64c6.4 0 19.2 6.4 32 19.2V416z" p-id="15143" fill="#e6e6e6"></path></svg>