<?xml version="1.0" standalone="no"?><!DOCTYPE svg PUBLIC "-//W3C//DTD SVG 1.1//EN" "http://www.w3.org/Graphics/SVG/1.1/DTD/svg11.dtd"><svg t="1752818854767" class="icon" viewBox="0 0 1024 1024" version="1.1" xmlns="http://www.w3.org/2000/svg" p-id="5387" xmlns:xlink="http://www.w3.org/1999/xlink" width="200" height="200"><path d="M531 958.9H64.3V903h405.9c17.6 21.3 38.1 40 60.8 55.9z m-97.3-111.8H176.1V534c0-166.4 135.4-301.8 301.7-301.8 121.9 0 227.5 70.2 279.2 172.1-16.3-2.7-32.9-4.4-49.9-4.4-5.6 0-11.2 0.6-16.8 0.8C644 332.8 566 288.1 477.8 288.1 342.3 288.2 232 398.4 232 534v257.2h111.8V511.7h55.9v279.5h11.9c5.6 19.5 13 38.2 22.1 55.9z m77.8-670.7h-55.9V64.6h55.9v111.8z m-253.8 65.4l-79-79 39.5-39.5 79 79-39.5 39.5z m407.6 0l-39.5-39.5 79-79 39.5 39.5-79 79z m0 0" p-id="5388"></path><path d="M704.2 447.9c-136.1 0-246.4 110.3-246.4 246.4 0 136.1 110.3 246.4 246.4 246.4 136.1 0 246.4-110.3 246.4-246.4 0-136-110.3-246.4-246.4-246.4z m0 453.2c-114.2 0-206.7-92.6-206.7-206.7 0-114.2 92.6-206.7 206.7-206.7 114.2 0 206.7 92.6 206.7 206.7s-92.5 206.7-206.7 206.7z m-20.5-165" p-id="5389"></path><path d="M849.8 729.3c0-45.3-29.3-62.8-29.3-62.8h-0.1c0.1-9.5-1.2-82.7-56.6-82.7H645.5c-55.4 0-56.7 73.2-56.6 82.7h-0.1s-30.1 5-30.1 62.5c0 16.7 3.7 27.5 13.4 34.6v17c0 12.9 11.3 24.4 24.6 24.4h0.4c13.3 0 22.3-11.4 22.3-24.4v-5.2c20.6 1.4 47.6 1.4 82.3 1.4v-0.7h4.4v0.7c35.3 0 62.6 0 83.4-1.4v5.2c0 12.9 10.5 24.4 23.8 24.4h0.4c13.3 0 23.1-11.4 23.1-24.4v-17.1c9.3-7.1 13-17.8 13-34.2z m-18.6-21.1c0 10.6-8.6 19.3-19.3 19.3-10.6 0-19.3-8.6-19.3-19.3 0-10.6 8.6-19.3 19.3-19.3 10.7 0 19.3 8.6 19.3 19.3z m-176-109h98.9c49.5 0 47.3 64.6 47.3 64.6H607.9s-2.2-64.6 47.3-64.6z m-59.9 89.7c10.6 0 19.3 8.6 19.3 19.3 0 10.6-8.6 19.3-19.3 19.3-10.6 0-19.3-8.6-19.3-19.3 0.1-10.7 8.7-19.3 19.3-19.3z m160.2 59.3h-94.6c-10.2 0-18.5-8.3-18.5-18.5s8.3-18.5 18.5-18.5h94.6c10.2 0 18.5 8.3 18.5 18.5s-8.3 18.5-18.5 18.5z m0 0" p-id="5390"></path></svg>