<?xml version="1.0" standalone="no"?><!DOCTYPE svg PUBLIC "-//W3C//DTD SVG 1.1//EN" "http://www.w3.org/Graphics/SVG/1.1/DTD/svg11.dtd"><svg t="1737292750416" class="icon" viewBox="0 0 1024 1024" version="1.1" xmlns="http://www.w3.org/2000/svg" p-id="2894" xmlns:xlink="http://www.w3.org/1999/xlink" width="200" height="200"><path d="M552.8 640.1c0-120.1 97.2-217.3 217.3-217.3 13.5 0 27 1.4 39.1 4 5.4-2.7 9.4-9.4 9.4-16.2v-16.2c0-10.8-8.1-18.9-18.9-18.9H731c-2.7 0-6.7 1.4-9.4 2.7l-31-94.5c-9.4-54-47.2-79.6-94.5-79.6H300.5c-52.6 0-85 35.1-94.5 79.6l-31 94.5c-2.7-1.3-6.7-2.7-9.4-2.7h-68.8c-10.8 0-18.9 8.1-18.9 18.9v16.2c0 10.8 8.1 18.9 18.9 18.9l27 4c-8.1 16.2-13.5 35.1-13.5 56.7l-9.4 112v149.8c0 18.9 14.8 35.1 35.1 35.1h52.6c18.9 0 35.1-14.8 35.1-35.1v-43.2h342.8c-9.6-21.4-13.7-44.4-13.7-68.7zM230.3 355.4l22.9-60.7v-1.3c2.7-12.1 6.7-14.8 14.8-24.3h360.3c8.1 9.4 12.1 12.1 14.8 24.3l22.9 63.4 8.1 33.7c-1.4 24.3-32.4 44.5-56.7 44.5H278.9c-25.6 0-55.3-20.2-56.7-44.5l8.1-35.1z m16.2 290.1c-28.3 0-52.6-22.9-52.6-52.6 0-28.3 22.9-52.6 52.6-52.6 28.3 0 52.6 22.9 52.6 52.6 0 29.7-24.3 52.6-52.6 52.6zM538 607.8c0 8.1-6.7 16.2-16.2 16.2H376c-8.1 0-16.2-6.7-16.2-16.2v-43.2c0-8.1 6.7-16.2 16.2-16.2h147.1c8.1 0 16.2 6.7 16.2 16.2v43.2H538z m0 0" p-id="2895"></path><path d="M771.5 471.4c-95.8 0-174.1 78.3-174.1 174.1s78.3 174.1 174.1 174.1 174.1-78.3 174.1-174.1c-0.1-95.8-78.3-174.1-174.1-174.1zM757 745.3L673 663.1c-0.9-0.4-1.7-1-2.4-1.7-3.6-3.6-3.6-9.7 0-13.4l80.9-82.6-20.1-19.6c-3.7-3.6-3.7-9.7 0-13.4 3.6-3 9.7-3.6 13.4 0l115.6 112.5c3.6 3.6 3.6 9.7 0 13.4-0.7 0.7-1.4 1.2-2.2 1.6l-83 85.4c-4.8 4.9-12.7 4.9-18.2 0z m96.7 15.8c-11.6 0-21.3-9.1-21.3-20.1s21.3-46.8 21.3-46.8S875 730.1 875 741.1s-9.7 20-21.3 20z" p-id="2896"></path><path d="M690.8 654.5l150.2-2-76.2-74.2z" p-id="2897"></path></svg>