<?xml version="1.0" standalone="no"?><!DOCTYPE svg PUBLIC "-//W3C//DTD SVG 1.1//EN" "http://www.w3.org/Graphics/SVG/1.1/DTD/svg11.dtd"><svg t="1733727289627" class="icon" viewBox="0 0 1024 1024" version="1.1" xmlns="http://www.w3.org/2000/svg" p-id="28172" xmlns:xlink="http://www.w3.org/1999/xlink" width="200" height="200"><path d="M776.704 355.328c4.096-6.656 5.12-16.384 2.56-24.064-25.6-68.608-67.584-150.016-130.048-150.016H385.536c-61.952 0-104.448 81.408-130.048 150.016-4.096 7.68-2.56 17.408 2.56 24.064 4.096 7.68 12.288 12.288 21.504 12.288h472.576c9.728 0 17.92-4.608 24.576-12.288z m-457.728-41.472c24.064-51.2 50.176-77.312 65.024-78.848h263.68c14.848 0 38.912 26.624 63.488 78.848H318.976z m-88.064 153.6c-25.6-9.728-41.984-4.096-52.736 1.024-9.728 5.12-21.504 17.408-26.624 39.936-14.848 74.752 24.064 95.232 48.64 100.864 17.408 4.096 33.792 5.12 50.176 6.656 5.12 0 11.264 1.536 16.384 1.536 2.56 1.024 4.096 1.024 6.656 1.024 1.536 0 2.56 0 4.096-1.024 14.848 0 31.232-1.536 47.616-5.12 17.408-5.12 39.424-18.944 46.08-38.912 7.68-21.504-12.288-52.224-29.696-59.904-39.936-19.456-75.264-33.792-110.592-46.08z m80.384 93.696c-12.288 2.56-25.6 2.56-37.888 2.56-5.12 0-12.288-1.024-18.944-1.024-14.848-1.536-28.672-2.56-41.984-5.12-5.12-1.024-13.824-2.56-6.656-36.352 0-1.024 1.536-2.56 1.536-4.096 1.536 0 4.096 0 6.656 1.024 32.768 10.752 65.024 24.064 99.84 41.472-1.536 1.536-1.536 1.536-2.56 1.536z" p-id="28173"></path><path d="M409.088 721.92H236.544c-14.848 0-26.624 12.288-26.624 26.624v67.072c0 7.68-6.656 14.848-14.848 14.848H109.568c-7.68 0-14.848-6.656-14.848-14.848V634.88l35.328-214.528c0-7.68-1.536-15.872-6.656-21.504-5.12-5.12-12.288-9.728-20.48-9.728h-24.064c-7.68 0-14.848-6.656-14.848-14.848v-12.288c0-7.68 6.656-14.848 14.848-14.848h86.528c12.288 0 21.504-7.68 25.6-18.944C216.576 249.344 274.944 138.24 323.584 138.24h385.536c48.64 0 107.008 111.104 132.608 189.952 4.096 10.752 13.824 18.944 25.6 18.944h86.528c7.68 0 14.848 6.656 14.848 14.848v12.288c0 7.68-6.656 14.848-14.848 14.848h-24.064c-7.68 0-14.848 4.096-20.48 9.728-5.12 5.12-7.68 13.312-6.656 21.504l3.584 23.552h53.76l-0.512-2.048c33.792-2.56 60.928-32.256 60.928-67.072v-12.288c0-37.376-31.232-68.608-69.12-68.608h-67.584c-7.68-21.504-21.504-56.32-40.448-91.136-41.984-78.848-88.064-119.296-137.216-119.296H321.536c-49.152 0-94.72 39.936-137.216 119.296-18.944 36.352-32.768 71.168-40.448 91.136H76.8c-37.888 0-69.12 30.72-69.12 68.608v12.288c0 34.816 26.624 62.976 61.952 67.072l-30.208 186.368v187.392c0 37.376 31.232 68.608 69.12 68.608h85.504c37.888 0 69.12-31.232 69.12-68.608v-39.936h145.92V721.92z" p-id="28174"></path><path d="M745.472 800.768c30.72 0 55.808-24.576 55.808-55.808 0-30.72-24.576-55.808-55.808-55.808-31.232 0-55.808 24.576-55.808 55.808s24.576 55.808 55.808 55.808z m0 55.296c-61.44 0-111.104-49.664-111.104-111.104s49.664-111.104 111.104-111.104 111.104 49.664 111.104 111.104-50.176 111.104-111.104 111.104z m212.992-82.432c5.12 8.704 12.8 15.872 21.504 20.48 13.824 7.168 18.432 24.064 11.264 37.888 0 0.512-0.512 0.512-0.512 1.024l-45.056 75.776c-7.68 12.8-24.064 17.408-37.376 10.24-29.184-16.384-66.56-6.144-82.944 20.48-5.12 8.192-7.68 17.92-7.68 28.16 0 15.36-12.8 28.16-28.16 28.16h-90.624c-15.36 0-28.16-12.288-28.16-27.648 0-31.232-26.624-56.832-59.904-56.832-11.264 0-20.992 2.56-30.208 7.68-13.312 7.168-30.208 3.072-37.376-10.24l-45.056-75.776c-7.68-13.312-3.584-30.208 9.728-37.888 0 0 0.512 0 0.512-0.512 28.672-15.872 37.888-50.688 22.016-76.8-5.12-8.704-12.8-15.872-21.504-20.992-13.824-7.168-18.432-24.064-11.264-37.888 0-0.512 0.512-0.512 0.512-1.024l45.056-75.776c7.68-12.8 24.064-17.408 37.376-10.24 29.696 16.384 66.56 6.656 82.944-20.48 5.12-8.192 7.68-18.432 7.68-28.672 0-15.36 12.288-28.16 27.648-28.16h90.624c15.36 0 28.16 12.8 28.16 28.16 0 31.744 26.112 57.344 59.904 57.344 11.264 0 20.992-2.56 30.72-7.68 13.312-7.168 30.208-3.072 37.376 10.24l45.056 75.776c7.68 13.312 3.584 30.208-9.728 37.888l-0.512 0.512c-28.16 15.36-37.376 49.664-22.016 76.8z m-47.104 28.672c-27.648-46.08-17.92-102.4 19.456-137.728l-19.968-33.792c-10.752 3.072-21.504 4.608-32.768 4.608-53.76 0-98.816-36.352-111.616-85.504h-41.984c-2.56 10.24-6.656 19.968-12.288 29.184-27.648 45.056-82.944 65.536-132.096 51.2l-19.968 33.792c7.168 7.168 14.336 15.36 19.456 24.064 27.648 45.056 17.92 101.888-19.456 137.216l19.968 33.792c10.752-3.072 21.504-4.096 32.256-4.096 53.76 0 98.816 35.84 111.616 84.992h41.984c2.56-10.24 6.656-19.456 12.288-28.672 27.648-45.056 82.432-65.536 132.096-51.2l19.968-33.792c-7.68-7.168-13.824-15.36-18.944-24.064z" p-id="28175"></path></svg>