<?xml version="1.0" standalone="no"?><!DOCTYPE svg PUBLIC "-//W3C//DTD SVG 1.1//EN" "http://www.w3.org/Graphics/SVG/1.1/DTD/svg11.dtd"><svg t="1733752615571" class="icon" viewBox="0 0 1024 1024" version="1.1" xmlns="http://www.w3.org/2000/svg" p-id="32372" xmlns:xlink="http://www.w3.org/1999/xlink" width="200" height="200"><path d="M941.8 429.4L547 83.7c-22.8-20-57.2-20-80 0L72.2 429.4C56 443.6 50.5 465.7 58 485.9 65.6 506 84.4 519 105.9 519H149v442.2h716V519h43.1c21.5 0 40.3-13 47.9-33.1 7.5-20.2 2-42.3-14.2-56.5zM801 897.2H213V519.3h588v377.9zM213 519v-63.7h588V519H213z m652-64H140.1L507 133.8 873.9 455H865z" p-id="32373"></path><path d="M358.4 685.9h-76.1c-14 0-25.4-11.4-25.4-25.4v-76.1c0-14 11.4-25.4 25.4-25.4h76.1c14 0 25.4 11.4 25.4 25.4v76.1c0 14-11.4 25.4-25.4 25.4z m-61.4-40h46.8v-46.8H297v46.8zM358.4 847.4h-76.1c-14 0-25.4-11.4-25.4-25.4v-76.1c0-14 11.4-25.4 25.4-25.4h76.1c14 0 25.4 11.4 25.4 25.4V822c0 14-11.4 25.4-25.4 25.4z m-61.4-40h46.8v-46.8H297v46.8zM546 847.4h-76c-14 0-25.4-11.4-25.4-25.4v-76.1c0-14 11.4-25.4 25.4-25.4h76c14 0 25.4 11.4 25.4 25.4V822c0 14-11.4 25.4-25.4 25.4z m-61.4-40h46.8v-46.8h-46.8v46.8z" p-id="32374"></path></svg>