<?xml version="1.0" standalone="no"?><!DOCTYPE svg PUBLIC "-//W3C//DTD SVG 1.1//EN" "http://www.w3.org/Graphics/SVG/1.1/DTD/svg11.dtd"><svg t="1737638474422" class="icon" viewBox="0 0 1024 1024" version="1.1" xmlns="http://www.w3.org/2000/svg" p-id="2952" xmlns:xlink="http://www.w3.org/1999/xlink" width="200" height="200"><path d="M534.1696 0c10.3808 0 18.7904 8.4096 18.7904 18.7904v0.8064a20.48 20.48 0 0 0 17.8304 20.3008l6.656 0.8704a20.48 20.48 0 0 0 22.4384-15.0016l0.2176-0.7936a18.7648 18.7648 0 0 1 22.016-13.504l0.96 0.2304 42.9056 11.4944a18.7392 18.7392 0 0 1 13.248 22.9504l-0.2048 0.768a20.48 20.48 0 0 0 11.9424 24.2048l6.2208 2.5856a20.48 20.48 0 0 0 25.5744-8.6784l0.384-0.6784a18.7392 18.7392 0 0 1 24.704-7.3472l0.9088 0.4864 38.4512 22.1952c8.9856 5.1968 12.0576 16.6784 6.8736 25.664l-0.4224 0.7168a20.48 20.48 0 0 0 5.2608 26.4832l5.312 4.096a20.48 20.48 0 0 0 26.9696-1.7664l0.576-0.5888a18.8032 18.8032 0 0 1 26.5856 0l31.3472 31.36a18.8032 18.8032 0 0 1 0 26.5728l-0.5888 0.5888a20.48 20.48 0 0 0-1.7536 26.9568l4.096 5.312a20.48 20.48 0 0 0 26.4704 5.2608l0.7168-0.4224a18.7776 18.7776 0 0 1 25.664 6.8736l22.1952 38.4512c5.1712 8.96 2.0992 20.4288-6.8608 25.6l-0.6784 0.3968a20.48 20.48 0 0 0-8.6784 25.5872l2.5856 6.208a20.48 20.48 0 0 0 24.2176 11.9424l0.7552-0.2048a18.7392 18.7392 0 0 1 22.9504 13.248l11.4944 42.9056a18.7648 18.7648 0 0 1-12.3136 22.6944l-0.9472 0.2944-0.8064 0.2048a20.48 20.48 0 0 0-15.0016 22.4384l0.8704 6.656a20.48 20.48 0 0 0 20.3008 17.8304h0.8064c10.3808 0 18.7904 8.4096 18.7904 18.7904v44.3392c0 10.368-8.4096 18.7904-18.7904 18.7904h-0.8064a20.48 20.48 0 0 0-20.3008 17.8304l-0.8704 6.656a20.48 20.48 0 0 0 15.0016 22.4384l0.8064 0.2048a18.7648 18.7648 0 0 1 13.4912 22.016l-0.2304 0.9728-11.4944 42.9056a18.7392 18.7392 0 0 1-22.9504 13.248l-0.768-0.2048a20.48 20.48 0 0 0-24.2048 11.9424l-2.5856 6.208a20.48 20.48 0 0 0 8.6784 25.5872l0.6784 0.384c8.96 5.184 12.032 16.64 6.8608 25.6128l-22.1952 38.4512a18.7776 18.7776 0 0 1-25.664 6.8736l-0.7168-0.4224a20.48 20.48 0 0 0-26.4832 5.248l-4.0832 5.3248a20.48 20.48 0 0 0 1.7536 26.9568l0.5888 0.5888a18.8032 18.8032 0 0 1 0 26.5856l-31.3472 31.3472a18.8032 18.8032 0 0 1-26.5856 0l-0.576-0.5888a20.48 20.48 0 0 0-26.9696-1.7536l-5.312 4.096a20.48 20.48 0 0 0-5.248 26.4704l0.4096 0.7168c5.184 8.9856 2.112 20.48-6.8736 25.664l-38.4512 22.1952c-8.96 5.1712-20.4288 2.0992-25.6-6.8608l-0.384-0.6784a20.48 20.48 0 0 0-25.6-8.6784l-6.208 2.5856a20.48 20.48 0 0 0-11.9424 24.2176l0.2048 0.7552a18.7392 18.7392 0 0 1-13.248 22.9504l-42.9056 11.4944a18.7648 18.7648 0 0 1-22.6944-12.3136l-0.2816-0.96-0.2176-0.7936a20.48 20.48 0 0 0-22.4256-15.0016l-6.656 0.8704a20.48 20.48 0 0 0-17.8432 20.3008v0.8064c0 10.368-8.4096 18.7904-18.7904 18.7904h-44.3392c-10.368 0-18.7904-8.4096-18.7904-18.7904v-0.8064a20.48 20.48 0 0 0-17.8304-20.3008l-6.656-0.8704a20.48 20.48 0 0 0-22.4384 15.0016l-0.2048 0.7936a18.7648 18.7648 0 0 1-22.016 13.504l-0.96-0.2304-42.9184-11.4944a18.7392 18.7392 0 0 1-13.248-22.9504l0.2048-0.768a20.48 20.48 0 0 0-11.9424-24.2048l-6.208-2.5856a20.48 20.48 0 0 0-25.5872 8.6784l-0.384 0.6784c-5.184 8.96-16.64 12.032-25.6 6.8608L236.8 944.32a18.7776 18.7776 0 0 1-6.8736-25.664l0.4096-0.7168a20.48 20.48 0 0 0-5.248-26.4832l-5.3248-4.096a20.48 20.48 0 0 0-26.9568 1.7664l-0.5888 0.5888a18.8032 18.8032 0 0 1-26.5856 0l-31.3344-31.36a18.8032 18.8032 0 0 1 0-26.5728l0.576-0.5888a20.48 20.48 0 0 0 1.7536-26.9568l-4.0832-5.312a20.48 20.48 0 0 0-26.4832-5.2608l-0.7168 0.4224c-8.9856 5.184-20.48 2.0992-25.664-6.8736l-22.1952-38.4512a18.7392 18.7392 0 0 1 5.9904-25.0624l0.8704-0.5376 0.6784-0.384a20.48 20.48 0 0 0 8.6784-25.6l-2.5728-6.208a20.48 20.48 0 0 0-24.2176-11.9424l-0.768 0.2048a18.7392 18.7392 0 0 1-22.9504-13.248l-11.4944-42.9056a18.7648 18.7648 0 0 1 12.3136-22.6944l0.96-0.2944 0.7936-0.2048a20.48 20.48 0 0 0 15.0016-22.4384l-0.8576-6.656A20.48 20.48 0 0 0 19.584 552.96h-0.8064C8.4224 552.96 0 544.5504 0 534.1696v-44.3392c0-10.368 8.4096-18.7904 18.7904-18.7904h0.8064a20.48 20.48 0 0 0 20.3136-17.8304l0.8576-6.656a20.48 20.48 0 0 0-15.0016-22.4384l-0.7936-0.2048a18.7648 18.7648 0 0 1-13.504-22.016l0.2304-0.9728 11.4944-42.9056a18.7392 18.7392 0 0 1 22.9504-13.248l0.768 0.2048a20.48 20.48 0 0 0 24.2176-11.9424l2.5728-6.2208a20.48 20.48 0 0 0-8.6784-25.5744l-0.6784-0.384a18.7392 18.7392 0 0 1-7.3472-24.704l0.4864-0.9088 22.1952-38.4512a18.7776 18.7776 0 0 1 25.664-6.8736l0.7168 0.4224a20.48 20.48 0 0 0 26.4832-5.248l4.096-5.3248a20.48 20.48 0 0 0-1.7664-26.9568l-0.5888-0.5888a18.8032 18.8032 0 0 1 0-26.5856l31.36-31.3472a18.8032 18.8032 0 0 1 26.5728 0l0.5888 0.5888a20.48 20.48 0 0 0 26.9568 1.7536l5.312-4.096a20.48 20.48 0 0 0 5.2608-26.4704l-0.4096-0.7168a18.7776 18.7776 0 0 1 6.8736-25.664l38.4384-22.1952a18.752 18.752 0 0 1 25.6 6.8608l0.3968 0.6784a20.48 20.48 0 0 0 25.5872 8.6784l6.208-2.5856a20.48 20.48 0 0 0 11.9424-24.2176l-0.2048-0.7552a18.7392 18.7392 0 0 1 13.248-22.9504l42.9184-11.4944a18.7648 18.7648 0 0 1 22.6944 12.3136l0.2816 0.96 0.2048 0.7936a20.48 20.48 0 0 0 22.4384 15.0016l6.656-0.8704A20.48 20.48 0 0 0 471.04 19.5968v-0.8064C471.04 8.4224 479.4496 0 489.8304 0h44.3392zM512 153.6c-197.9392 0-358.4 160.4608-358.4 358.4s160.4608 358.4 358.4 358.4 358.4-160.4608 358.4-358.4-160.4608-358.4-358.4-358.4z m-47.8208 492.416a51.2 51.2 0 0 1 6.8608 25.6v82.752a245.1456 245.1456 0 0 1-132.8128-68.5952 247.2192 247.2192 0 0 1-15.616-17.1392l71.6288-41.344a51.2 51.2 0 0 1 69.9392 18.7392z m139.9808-25.6a51.2 51.2 0 0 1 25.6 6.8736l71.6288 41.344c-4.9408 5.9648-10.1504 11.6864-15.616 17.152A245.1456 245.1456 0 0 1 552.96 754.3424v-82.7264a51.2 51.2 0 0 1 51.2-51.2zM512 593.92c5.6576 0 10.7776 2.304 14.4896 6.0032 3.712 3.712 5.9904 8.832 5.9904 14.4768a20.416 20.416 0 0 1-20.48 20.48c-5.6576 0-10.7776-2.304-14.4768-6.0032a20.416 20.416 0 0 1 0-28.9664c3.712-3.6992 8.832-5.9904 14.4768-5.9904zM281.6 426.2784l71.68 41.3824a51.2 51.2 0 0 1 0 88.6784L281.6 597.7216A245.248 245.248 0 0 1 266.24 512c0-30.1568 5.4272-59.0336 15.36-85.7216z m460.8 0A245.248 245.248 0 0 1 757.76 512a245.248 245.248 0 0 1-15.36 85.7216l-71.68-41.3824a51.2 51.2 0 0 1 0-88.6784l71.68-41.3824z m-131.4816 119.1808c4.9024 2.8288 8.192 7.3728 9.5488 12.4416 1.3568 5.056 0.768 10.6368-2.048 15.5392s-7.3728 8.192-12.4416 9.536a20.416 20.416 0 0 1-15.5392-2.048 20.416 20.416 0 0 1-9.536-12.416 20.416 20.416 0 0 1 2.048-15.552c2.816-4.9024 7.3728-8.192 12.4288-9.536a20.416 20.416 0 0 1 15.5392 2.048z m-182.2976-2.048c5.0688 1.3568 9.6 4.6464 12.4416 9.5488 2.816 4.9024 3.392 10.4832 2.048 15.5392-1.3696 5.0688-4.6464 9.6-9.5488 12.4416-4.9024 2.816-10.4832 3.392-15.5392 2.048a20.416 20.416 0 0 1-12.4416-9.5488 20.416 20.416 0 0 1-2.048-15.5392c1.3568-5.0688 4.6464-9.6 9.5488-12.4416 4.9024-2.816 10.4832-3.392 15.5392-2.048zM512 450.56c16.9728 0 32.3328 6.8736 43.4432 17.9968A61.248 61.248 0 0 1 573.44 512a61.248 61.248 0 0 1-17.9968 43.4432A61.248 61.248 0 0 1 512 573.44a61.248 61.248 0 0 1-43.4432-17.9968A61.248 61.248 0 0 1 450.56 512c0-16.96 6.8736-32.32 17.9968-43.4432A61.248 61.248 0 0 1 512 450.56z m-78.4384-7.5008c4.9024 2.8288 8.192 7.3728 9.536 12.4416 1.3568 5.056 0.7936 10.6368-2.048 15.5392a20.416 20.416 0 0 1-27.9808 7.5008 20.416 20.416 0 0 1-9.536-12.4416 20.416 20.416 0 0 1 2.048-15.5392c2.8288-4.9024 7.3728-8.192 12.4416-9.536a20.416 20.416 0 0 1 15.5392 2.048z m172.416-2.048c5.0688 1.3568 9.6128 4.6464 12.4416 9.5488 2.816 4.9024 3.4048 10.4832 2.048 15.5392-1.3568 5.0688-4.6464 9.6-9.5488 12.4416-4.8896 2.816-10.4704 3.392-15.5392 2.048a20.416 20.416 0 0 1-12.4288-9.5488 20.416 20.416 0 0 1-2.048-15.5392 20.416 20.416 0 0 1 25.088-14.4768zM512 389.12c5.6576 0 10.7776 2.304 14.4896 6.0032 3.712 3.712 5.9904 8.832 5.9904 14.4768a20.416 20.416 0 0 1-20.48 20.48c-5.6576 0-10.7776-2.304-14.4768-6.0032a20.416 20.416 0 0 1 0-28.9664c3.712-3.6992 8.832-5.9904 14.4768-5.9904z m40.96-119.4752a245.1456 245.1456 0 0 1 132.8256 68.5824c5.4528 5.4528 10.6624 11.1744 15.6032 17.1264L629.76 396.7104a51.2 51.2 0 0 1-76.8-44.3392v-82.7264z m-81.92 0v82.7264a51.2 51.2 0 0 1-76.8 44.3392l-71.616-41.344A245.1456 245.1456 0 0 1 471.04 269.632z" p-id="2953"></path></svg>